<defs>
<font horiz-adv-x="577" ><font-face
    font-family="lmromandunh10-regular"
    units-per-em="1000"
    panose-1="0 0 5 0 0 0 0 0 0 0"
    ascent="1514"
    descent="-549"
    alphabetic="0" />
<missing-glyph horiz-adv-x="280" />
<glyph unicode=" " glyph-name="space" horiz-adv-x="333" />
<glyph unicode="!" glyph-name="exclam" horiz-adv-x="278" d="M192 932L152 210Q152 203 152 201T151 195T149 190T145 188T139 187Q131 187 129 191T126 211L86 933Q84 966 102 980T139 994Q149 994 160 991T182 972T192 932ZM192 75T192 53T177 16T139 0T102
15T86 53T101 90T139 106T176 91Z" />
<glyph unicode="&quot;" glyph-name="quotedbl" horiz-adv-x="500" d="M210 943Q210 939 209 937L175 542H153L118 937V943Q118 964 131 975T164 987T196 976T210 943ZM380 937L345 542H323L288 937V943Q288 964 301 975T334 987T366 976T380 943V937Z" />
<glyph unicode="#" glyph-name="numbersign" horiz-adv-x="833" d="M776 173T776 153T743 133H531L437 -444Q435 -454 434 -458T428 -467T416 -472T402 -466T396 -452Q397 -442 398 -439L491 133H302L208 -444Q206 -454 205 -458T199 -467T187 -472T173 -466T167
-452Q168 -442 169 -439L262 133H89Q56 133 56 153T90 173H269L294 327H90Q56 327 56 347T89 367H301L395 944Q397 954 398 958T404 967T416 972T430 966T436 952Q435 942 434 939L341 367H530L624 944Q626 954 627 958T633 967T645 972T659 966T665 952Q664 942
663 939L570 367H743Q776 367 776 347T742 327H563L538 173H742Q776 173 776 153ZM523 327H334L309 173H498L523 327Z" />
<glyph unicode="$" glyph-name="dollar" horiz-adv-x="500" d="M443 267Q443 162 394 82T265 -10V-56H234V-10Q187 -7 153 15T100 67T72 134T59 197T56 246Q56 301 102 301Q119 301 133 289T148 255Q148 234 135 222T102 209Q95 209 83 213Q99 31 234 21V464Q198
477 181 484T143 508T104 552Q56 625 56 725Q56 821 104 896T234 982V1028H265V982Q316 979 353 954T409 892T435 818T443 744Q443 690 397 690Q379 690 365 702T351 736Q351 756 363 769T397 782Q410 782 416 779Q396 941 265 951V547Q295 537 311 530T350 506T390
464Q443 386 443 267ZM234 558V951Q181 942 144 888T107 755Q107 679 140 626Q172 576 234 558ZM392 237Q392 319 362 376Q330 433 265 453V21Q318 31 355 91T392 237Z" />
<glyph unicode="%" glyph-name="percent" horiz-adv-x="833" d="M776 325T776 215T740 25T646 -56Q586 -56 543 22T499 215T542 408T646 486Q703 486 739 406ZM751 112T751 215T720 391T647 464Q602 464 576 371Q561 318 561 215Q561 114 575 60Q600 -34 647 -34Q689
-34 720 39ZM693 1008Q693 1003 687 991L180 -37Q177 -44 176 -46T172 -51T166 -55T159 -56Q151 -56 145 -50T139 -36Q139 -31 146 -18L608 922H607Q543 870 455 870Q373 870 309 918Q333 845 333 757Q333 647 297 567T203 486Q143 486 100 564T56 757T99 950T203
1028Q221 1028 237 1019T260 1003T279 980Q345 892 454 892Q584 892 651 1009Q662 1028 673 1028Q682 1028 687 1022T693 1008ZM308 654T308 757T277 933T204 1006Q159 1006 133 913Q118 860 118 757Q118 656 132 602Q157 508 204 508Q246 508 277 581Z" />
<glyph unicode="&amp;" glyph-name="ampersand" horiz-adv-x="778" d="M727 400Q685 400 658 387T618 358T582 304Q505 175 465 120Q533 9 585 9Q623 9 658 37T696 121H721Q720 57 678 18T582 -22Q504 -22 423 73Q332 -22 224 -22Q144 -22 93 37T42 177Q42 241
76 294L209 499Q163 645 163 789Q163 887 203 940T300 994Q386 994 386 829Q386 732 266 547Q290 456 355 323T451 144Q507 218 573 336Q579 354 579 356Q579 375 561 387T508 400V431Q549 428 630 428L727 431V400ZM361 831Q361 911 346 941T301 972Q226 972 226
814Q226 695 258 576Q361 737 361 831ZM407 94Q361 159 303 275T218 471L182 417Q162 386 153 368T134 310T125 220Q125 140 142 86Q166 9 231 9Q284 9 330 35T407 94Z" />
<glyph unicode="&apos;" glyph-name="quotesingle" horiz-adv-x="278" d="M184 937L149 542H127L92 937V943Q92 964 105 975T138 987T170 976T184 943V937Z" />
<glyph unicode="(" glyph-name="parenleft" horiz-adv-x="389" d="M331 -518Q331 -528 321 -528Q313 -528 296 -506T264 -459T234 -409L220 -385Q99 -152 99 250Q99 720 267 964Q310 1028 321 1028Q331 1028 331 1018Q330 1013 329 1011Q238 870 198 698T157 250Q157
9 191 -172T321 -498L331 -518Z" />
<glyph unicode=")" glyph-name="parenright" horiz-adv-x="389" d="M289 250Q289 -220 121 -464Q78 -528 67 -528Q57 -528 57 -518Q57 -514 68 -498Q164 -350 197 -167T231 250Q231 539 189 707T59 1010Q57 1016 57 1018Q57 1028 67 1028Q72 1028 82 1018T102
992T125 958T146 924T162 896L168 885Q289 652 289 250Z" />
<glyph unicode="*" glyph-name="asterisk" horiz-adv-x="500" d="M434 719Q434 709 426 700T407 691Q398 691 386 701L261 792L275 636L276 622Q276 611 268 604T250 597Q238 597 231 604T223 622L238 792L113 700Q101 691 92 691Q81 691 73 700T65 719Q65 727
68 732T75 740T87 746L227 813L85 880Q65 889 65 906Q65 916 73 925T92 934Q101 934 113 924L238 833L223 1003Q223 1013 230 1020T250 1028Q260 1028 268 1021T276 1003L261 833L386 925Q398 934 407 934Q418 934 426 925T434 906Q434 898 431 893T424 885T412
879L272 812L414 745Q434 736 434 719Z" />
<glyph unicode="+" glyph-name="plus" horiz-adv-x="778" d="M721 270T721 250T688 230H409V-50Q409 -83 389 -83T369 -50V230H89Q56 230 56 250T89 270H369V550Q369 583 389 583T409 550V270H688Q721 270 721 250Z" />
<glyph unicode="," glyph-name="comma" horiz-adv-x="278" d="M203 1Q203 -51 182 -99T141 -170T112 -193Q102 -193 102 -182Q102 -178 109 -171Q181 -94 181 1L179 16Q160 0 139 0Q114 0 100 16T86 53T100 90T139 106Q169 106 186 78T203 1Z" />
<glyph unicode="-" glyph-name="hyphen" horiz-adv-x="333" d="M276 187H11V245H276V187Z" />
<glyph unicode="." glyph-name="period" horiz-adv-x="278" d="M192 75T192 53T177 16T139 0T102 15T86 53T101 90T139 106T176 91Z" />
<glyph unicode="/" glyph-name="slash" horiz-adv-x="500" d="M443 1008Q443 1004 439 989L98 -500Q95 -511 94 -515T89 -524T76 -528T62 -522T56 -508Q56 -504 60 -489L401 1000Q404 1011 405 1015T410 1024T423 1028T437 1022T443 1008Z" />
<glyph unicode="0" glyph-name="zero" horiz-adv-x="500" d="M460 459Q460 270 430 163Q407 81 361 30T249 -22Q126 -22 68 165Q39 264 39 459Q39 645 67 750Q122 944 250 944Q363 944 422 784Q460 674 460 459ZM377 475Q377 670 368 743Q346 922 249 922Q198
922 169 870T130 734Q122 659 122 475Q122 287 130 202T162 66Q195 0 250 0Q292 0 325 46T369 204Q377 291 377 475Z" />
<glyph unicode="1" glyph-name="one" horiz-adv-x="500" d="M419 0Q384 3 257 3T95 0V31H127Q190 31 205 40T220 79V860Q165 821 89 821V852Q154 852 201 879T271 944Q288 944 291 940T294 918V79Q294 49 308 40T387 31H419V0Z" />
<glyph unicode="2" glyph-name="two" horiz-adv-x="500" d="M449 174L421 0H50Q50 25 58 37L233 325Q300 436 329 520T358 684Q358 913 229 913Q163 913 128 856T84 717Q93 720 102 720Q122 720 138 707T155 667Q155 645 141 630T103 615Q50 615 50 675Q50 716
59 759T89 846T148 916T237 944Q335 944 392 869T449 681Q449 634 438 591T400 499T357 427T304 351L109 77H307Q395 77 402 85Q412 99 424 174H449Z" />
<glyph unicode="3" glyph-name="three" horiz-adv-x="500" d="M457 246Q457 134 395 56T244 -22Q154 -22 98 52T42 216Q42 233 48 245T61 264T77 273T91 276T98 277Q119 277 136 262T154 221Q154 197 139 181T98 165Q84 165 78 168Q93 95 138 51T242 6Q285 6 319
61T354 246Q354 341 334 399Q302 487 234 487H191Q176 487 172 488T167 498Q167 502 169 504T173 508H175Q180 510 207 513Q232 515 245 518T279 535T310 572T329 642T338 753Q338 847 308 883T242 919Q196 919 155 885T100 790Q108 793 120 793Q142 793 156 779T171
742Q171 721 157 707T120 692Q110 692 100 695T79 712T69 746Q69 821 118 882T245 944Q319 944 374 891T430 755Q430 726 424 694T402 624T354 554T278 503Q359 485 408 413T457 246Z" />
<glyph unicode="4" glyph-name="four" horiz-adv-x="500" d="M471 243H371V78Q371 49 383 40T447 31H468V0Q427 3 332 3Q238 3 197 0V31H218Q270 31 282 40T294 78V243H28Q28 275 34 287L339 941Q351 954 356 955Q367 955 369 951T371 929V274H471V243ZM300 274V801H299L54
274H300Z" />
<glyph unicode="5" glyph-name="five" horiz-adv-x="500" d="M449 288Q449 154 384 66T230 -22Q184 -22 148 3T91 67T61 148T50 232Q50 288 99 288Q122 288 135 274T149 239T136 205T99 190Q86 190 78 194Q88 109 129 58T228 6Q297 6 336 101Q360 162 360 294Q360
412 344 468Q315 570 258 570Q177 570 130 480Q123 467 115 467Q105 467 103 472T101 493V919Q101 943 111 943Q114 943 122 939Q182 898 256 898Q329 898 386 936L400 943Q410 943 410 933Q410 926 397 908T362 869T301 831T220 815Q174 815 132 836V526Q182 592
259 592Q340 592 394 503T449 288Z" />
<glyph unicode="6" glyph-name="six" horiz-adv-x="500" d="M457 290Q457 170 407 87Q376 35 341 7T251 -22Q183 -22 139 34T71 176Q42 284 42 451Q42 672 121 808T305 944Q369 944 400 904T432 810Q432 789 422 777T403 763T386 760Q368 760 354 772T340 806T354
840T386 852Q393 852 401 850Q392 882 368 900T306 919Q232 919 182 814T132 520V492Q166 599 257 599Q305 599 341 573T413 486Q457 407 457 290ZM367 291Q367 321 367 338T364 389T358 445T346 494T326 538T296 565T254 577Q134 577 134 342Q134 316 134 300T136
250T140 193T148 139T162 86T183 46T212 16T250 6Q292 6 316 38T352 111Q367 163 367 291Z" />
<glyph unicode="7" glyph-name="seven" horiz-adv-x="500" d="M485 922Q485 898 479 887L335 589Q292 501 277 326Q268 230 268 119V33Q268 -22 222 -22T176 39Q176 147 204 296T307 601L425 845H204Q113 845 106 839Q96 830 81 748H56L89 954H114Q117 942 122
937T155 927T242 922H485Z" />
<glyph unicode="8" glyph-name="eight" horiz-adv-x="500" d="M457 237Q457 133 399 56T249 -22Q161 -22 102 49T42 217Q42 376 199 484L136 542Q69 609 69 718Q69 808 119 876T250 944Q327 944 378 883T430 740Q430 610 297 515L348 467Q372 445 386 430T419
386T448 320T457 237ZM386 739Q386 812 348 865T249 919Q191 919 152 872T113 761Q113 688 163 638L280 531Q321 563 353 616T386 739ZM407 197Q407 240 393 276T365 327T329 364L217 467Q163 432 128 366T92 218Q92 132 135 69T250 6Q317 6 362 63T407 197Z" />
<glyph unicode="9" glyph-name="nine" horiz-adv-x="500" d="M457 472Q457 255 384 117T206 -22Q142 -22 105 16T67 113Q67 141 82 151T113 162Q131 162 145 150T159 116T145 82T113 70L99 72Q124 6 206 6Q279 6 323 112T367 400V430Q355 388 326 356T242 323Q191
323 159 348T98 418Q64 471 53 520T42 632Q42 756 97 842Q162 944 253 944Q312 944 354 898T420 777Q457 657 457 472ZM366 582Q366 680 357 757Q347 829 322 874T254 919Q183 919 149 818Q132 765 132 630Q132 596 132 575T136 515T146 451T165 399T197 359T245
345Q366 345 366 582Z" />
<glyph unicode=":" glyph-name="colon" horiz-adv-x="278" d="M192 400T192 378T177 341T139 325T102 340T86 378T101 415T139 431T176 416ZM192 75T192 53T177 16T139 0T102 15T86 53T101 90T139 106T176 91Z" />
<glyph unicode=";" glyph-name="semicolon" horiz-adv-x="278" d="M192 400T192 378T177 341T139 325T102 340T86 378T101 415T139 431T176 416ZM195 3Q195 -49 176 -97T138 -169T112 -193Q102 -193 102 -182Q102 -177 109 -169Q173 -95 173 11Q164 3 147 1Q144
0 139 0Q114 0 100 16T86 53T100 90T139 106Q195 106 195 3Z" />
<glyph unicode="&lt;" glyph-name="less" horiz-adv-x="778" d="M694 -20Q694 -28 688 -34T674 -40Q669 -40 656 -33L102 228Q83 237 83 250T102 272L656 533Q669 540 674 540Q682 540 688 534T694 520Q694 508 675 498L150 250L675 2Q694 -8 694 -20Z" />
<glyph unicode="=" glyph-name="equal" horiz-adv-x="778" d="M721 367T721 347T687 327H90Q56 327 56 347T89 367H688Q721 367 721 347ZM721 173T721 153T688 133H89Q56 133 56 153T90 173H687Q721 173 721 153Z" />
<glyph unicode="&gt;" glyph-name="greater" horiz-adv-x="778" d="M694 263T694 250T675 228L121 -33Q108 -40 103 -40Q95 -40 89 -34T83 -20Q83 -8 102 2L627 250L102 498Q83 508 83 520Q83 528 89 534T103 540Q108 540 121 533L675 272Q694 263 694 250Z" />
<glyph unicode="?" glyph-name="question" horiz-adv-x="472" d="M415 778Q415 735 404 700T383 651T358 621Q307 565 277 490T241 371T235 291V214Q235 203 235 199T231 191T222 187Q214 187 212 191T210 211V301Q210 484 301 639Q319 671 325 702T332 787Q332
809 332 822T328 858T318 897T300 929T268 953T222 961Q172 961 135 924T85 821Q92 824 102 824Q122 824 135 812T148 778T134 745T102 732Q95 732 87 733T68 748T56 783Q56 815 66 849T96 913T149 963T224 983Q261 983 293 972T354 939T398 875T415 778ZM275 75T275
53T260 16T222 0T185 15T169 53T184 90T222 106T259 91Z" />
<glyph unicode="@" glyph-name="at" horiz-adv-x="778" d="M721 464Q721 416 720 384T713 310T697 243T668 201T620 183Q581 183 553 210T519 280Q466 183 388 183Q307 183 248 270T189 486T248 702T388 789Q427 789 464 761T529 671H562Q581 671 584 668T588
646V286Q588 205 622 205Q673 205 688 309Q696 361 696 464Q696 667 622 795Q526 961 388 961Q266 961 174 826T81 486Q81 286 172 149T392 11Q542 11 670 106H697Q707 106 710 106T717 103T720 96Q720 87 672 62T583 22Q490 -11 394 -11Q250 -11 153 134T56 486Q56
697 155 840T389 983Q460 983 524 941T636 819Q721 679 721 464ZM519 357V615Q519 655 478 712Q439 767 389 767Q335 767 297 685T258 486T296 287T389 205Q437 205 474 255Q478 259 487 273T508 312T519 357Z" />
<glyph unicode="A" glyph-name="A" horiz-adv-x="750" d="M718 0L588 3Q481 3 445 0V31Q534 31 534 63Q532 70 531 76L469 325H223L169 107Q165 92 165 86Q165 64 187 48T247 31V0L132 3Q94 3 31 0V31Q85 31 106 51T136 103L353 973Q356 986 360 990T375 994Q385
994 389 990T396 973L621 72Q627 47 641 39T701 31H718V0ZM461 356L346 814L231 356H461Z" />
<glyph unicode="B" glyph-name="B" horiz-adv-x="708" d="M651 255Q651 152 587 76T426 0H36V31H60Q114 31 126 40T139 78V883Q139 912 127 921T60 930H36V961H398Q496 961 560 891T624 725Q624 645 575 582T449 502Q534 493 592 423T651 255ZM527 725Q527 755
521 788T500 854T458 908T393 930H271Q237 930 230 923T222 890V511H369Q443 511 485 577T527 725ZM551 256Q551 341 519 406Q478 489 404 489H222V71Q222 45 229 38T271 31H394Q446 31 483 67T535 153T551 256Z" />
<glyph unicode="C" glyph-name="C" horiz-adv-x="722" d="M665 343Q665 287 651 228T608 110T526 15T405 -22Q265 -22 161 122T56 481Q56 695 160 839T405 983Q519 983 592 868L640 969Q644 979 646 981T654 983Q662 983 663 979T665 959V601Q665 584 663 581T649
577Q639 577 637 580T633 601Q630 647 623 690T599 782T559 868T499 928T414 952Q342 952 290 901T210 789Q159 672 159 480Q159 360 180 269T231 130T298 53T363 17T414 9Q513 9 575 103T640 350Q640 365 652 365Q661 365 663 361T665 343Z" />
<glyph unicode="D" glyph-name="D" horiz-adv-x="764" d="M707 472Q707 273 617 137T399 0H35V31H59Q113 31 125 40T138 78V883Q138 912 126 921T59 930H35V961H398Q485 961 556 895T667 716T707 472ZM607 473Q607 654 572 755Q562 780 550 803T514 859T453 910T371
930H273Q239 930 232 923T224 890V71Q224 45 231 38T273 31H371Q444 31 493 78T568 189Q607 285 607 473Z" />
<glyph unicode="E" glyph-name="E" horiz-adv-x="681" d="M652 258L610 0H33V31H57Q111 31 123 40T136 78V880Q136 909 124 918T57 927H33V958H596L624 733H599Q592 790 583 823T553 881T496 917T403 927H274Q240 927 233 920T225 887V513H315Q384 513 403 537T423
630H448V365H423Q423 433 404 457T315 482H225V71Q225 45 232 38T274 31H407Q450 31 481 36T535 56T572 86T597 131T614 187T627 258H652Z" />
<glyph unicode="F" glyph-name="F" horiz-adv-x="653" d="M610 733H585Q578 790 569 822T540 881T485 917T394 927H274Q240 927 233 920T225 887V495H311Q379 495 398 519T417 612H442V347H417Q417 416 398 440T311 464H225V79Q225 58 228 50T253 37T320 31H353V0Q317
3 185 3Q68 3 33 0V31H57Q111 31 123 40T136 78V880Q136 909 124 918T57 927H33V958H582L610 733Z" />
<glyph unicode="G" glyph-name="G" horiz-adv-x="785" d="M735 242Q687 242 677 235T666 198V24Q666 1 657 1Q649 1 626 23T593 63Q568 20 516 -1T408 -22Q338 -22 273 16T161 121T85 281T56 481Q56 694 160 838T406 983Q519 983 593 868L641 969Q644 976 646
978T649 982T655 983Q663 983 664 979T666 959V601Q666 584 664 581T650 577Q640 577 638 580T634 601Q631 639 625 675T609 753T581 829T542 891T486 936T414 952Q394 952 373 946T320 924T262 874T211 791T173 662T159 481Q159 392 171 319T201 198T245 114T295
58T347 27T391 12T424 9Q437 9 455 12T505 25T556 63T577 130V194Q577 224 563 233T484 242H452V273Q488 270 613 270L735 273V242Z" />
<glyph unicode="H" glyph-name="H" horiz-adv-x="750" d="M716 0Q681 3 568 3Q456 3 421 0V31H445Q499 31 511 40T524 78V484H225V78Q225 49 237 40T304 31H328V0Q293 3 180 3Q68 3 33 0V31H57Q111 31 123 40T136 78V883Q136 912 124 921T57 930H33V961Q68 958
181 958Q293 958 328 961V930H304Q250 930 238 921T225 883V515H524V883Q524 912 512 921T445 930H421V961Q456 958 569 958Q681 958 716 961V930H692Q638 930 626 921T613 883V78Q613 49 625 40T692 31H716V0Z" />
<glyph unicode="I" glyph-name="I" horiz-adv-x="361" d="M333 0Q298 3 180 3Q63 3 28 0V31H54Q110 31 123 40T136 78V883Q136 912 123 921T54 930H28V961Q63 958 180 958Q298 958 333 961V930H307Q251 930 238 921T225 883V78Q225 49 238 40T307 31H333V0Z" />
<glyph unicode="J" glyph-name="J" horiz-adv-x="514" d="M465 930Q436 930 425 929T403 924T390 908Q388 904 388 861V237Q388 190 387 184Q381 92 326 35T201 -22Q131 -22 86 33T41 157Q41 189 59 202T97 216Q121 216 137 201T153 160T136 119T97 104Q90 104
80 106Q92 59 125 30T199 0Q244 0 273 60T302 200V882Q302 903 298 911T273 924T204 930H168V961Q206 958 336 958L465 961V930Z" />
<glyph unicode="K" glyph-name="K" horiz-adv-x="778" d="M736 0L624 3Q520 3 484 0V31Q553 31 553 67L552 74Q549 87 544 97L343 518L225 359V78Q225 49 237 40T304 31H328V0Q293 3 180 3Q68 3 33 0V31H57Q111 31 123 40T136 78V883Q136 912 124 921T57 930H33V961Q68
958 181 958Q293 958 328 961V930H304Q250 930 238 921T225 883V401L566 861Q576 874 576 885Q576 900 560 914T511 930V961Q545 958 637 958Q695 958 722 961V930Q645 926 601 867L397 591L639 86Q656 49 675 40T736 31V0Z" />
<glyph unicode="L" glyph-name="L" horiz-adv-x="625" d="M582 258L554 0H33V31H57Q111 31 123 40T136 78V883Q136 912 124 921T57 930H33V961Q68 958 185 958Q317 958 353 961V930H320Q274 930 253 924T229 910T225 882V71Q225 45 232 38T274 31H356Q407 31 443
46T499 80T532 135T549 194T557 258H582Z" />
<glyph unicode="M" glyph-name="M" horiz-adv-x="917" d="M879 0Q842 3 736 3Q629 3 592 0V31H616Q670 31 682 40T695 78V917L446 20Q441 0 430 0T414 20L168 906V105Q168 90 170 81T180 59T212 38T271 31V0L154 3L37 0V31Q73 31 96 38T127 58T138 81T140 105V883Q140
912 128 921T61 930H37V961H206Q225 961 229 958T237 941L458 141L678 941Q682 955 687 958T710 961H879V930H855Q801 930 789 921T776 883V78Q776 49 788 40T855 31H879V0Z" />
<glyph unicode="N" glyph-name="N" horiz-adv-x="750" d="M716 930Q680 930 657 923T626 903T615 880T613 856V26Q613 10 611 5T599 0Q592 0 590 2T582 15L165 887H164V105Q164 90 166 81T176 59T208 38T267 31V0L150 3L33 0V31Q69 31 92 38T123 58T134 81T136
105V922Q111 930 61 930H33V961H198Q213 961 217 959T226 946L584 197H585V856Q585 871 583 880T573 902T541 923T482 930V961L599 958L716 961V930Z" />
<glyph unicode="O" glyph-name="O" horiz-adv-x="778" d="M721 478Q721 265 622 122T388 -22Q255 -22 156 120T56 478T155 838T389 983Q522 983 621 839T721 478ZM618 497Q618 621 596 715T538 859T465 934T388 958Q358 958 328 944T267 896T213 811T174 679T159
497Q159 371 179 273T234 118T307 33T389 4Q480 4 549 129T618 497Z" />
<glyph unicode="P" glyph-name="P" horiz-adv-x="681" d="M624 706Q624 600 555 528T392 455H227V78Q227 49 239 40T306 31H330V0Q295 3 182 3Q70 3 35 0V31H59Q113 31 125 40T138 78V883Q138 912 126 921T59 930H35V961H385Q489 961 556 885T624 706ZM521 669T521
706T520 763T512 814T489 866Q446 930 358 930H273Q239 930 232 923T224 890V481H358Q447 481 491 548Q505 570 512 599T520 649Z" />
<glyph unicode="Q" glyph-name="Q" horiz-adv-x="778" d="M727 -10Q727 -34 722 -61T705 -120T668 -173T606 -194Q580 -194 561 -186T529 -162T508 -129T496 -87T491 -44T487 0Q437 -22 389 -22Q254 -22 155 121T56 478Q56 693 155 838T389 983Q522 983 621 839T721
478Q721 386 702 305T650 168T585 76T519 19Q534 -42 556 -66T614 -91Q648 -91 674 -69T705 -7Q707 11 716 11Q727 11 727 -10ZM621 478Q621 578 607 660T570 797T516 888T453 941T388 958Q348 958 309 932T235 851T178 700T156 478Q156 323 188 219Q232 68 325
19Q308 49 308 91Q308 137 330 170T390 203Q441 203 466 166T508 64Q621 186 621 478ZM484 39Q481 71 477 92T464 135T436 169T391 181Q372 181 359 170T340 143T332 114T330 91Q330 87 330 81T334 59T342 33T360 12T389 3Q439 3 484 39Z" />
<glyph unicode="R" glyph-name="R" horiz-adv-x="736" d="M732 119Q732 107 730 92T721 47T692 -2T638 -22Q552 -22 507 40Q481 77 476 111T470 241Q470 286 469 308T461 360T440 412Q403 470 339 470H224V78Q224 49 236 40T303 31H327V0Q291 3 181 3T35 0V31H59Q113
31 125 40T138 78V883Q138 912 126 921T59 930H35V961H345Q458 961 534 887T610 711Q610 633 559 568T420 479Q542 428 560 290L572 183Q582 83 595 45Q609 0 642 0Q661 0 675 12T695 46T704 83T707 117Q707 139 719 139Q732 139 732 119ZM507 711Q507 827 466
874Q443 900 412 913T360 928T302 930Q256 930 246 928Q235 927 231 922T225 910T224 890V492H330Q424 492 470 555Q507 603 507 711Z" />
<glyph unicode="S" glyph-name="S" horiz-adv-x="556" d="M499 256Q499 140 443 59T302 -22Q185 -22 117 71Q103 41 94 20T82 -6Q77 -17 75 -19T67 -22Q59 -22 58 -18T56 2V294Q56 305 56 309T60 316T69 319Q81 319 81 308Q81 290 82 276T87 229T100 170T124 113T163
59T221 24T301 9Q360 9 397 71T435 223Q435 249 432 275T419 333T387 392T332 429L228 465Q198 475 181 483T138 512T95 565Q56 637 56 724Q56 833 113 908T252 983Q357 983 414 894L446 968Q456 982 461 983Q469 983 470 979T472 959V666Q472 655 472 651T468
645T459 642Q451 642 449 646T446 666Q442 723 433 767T403 858T344 929T253 955Q195 955 158 898T120 760Q120 677 154 625Q166 606 181 594T207 576T242 563L334 532Q422 502 458 433Q499 353 499 256Z" />
<glyph unicode="T" glyph-name="T" horiz-adv-x="722" d="M685 730H660Q656 775 653 801T641 851T622 888T591 909T545 921T480 924Q434 924 423 922Q411 919 408 911T405 884V79Q405 59 409 51T436 37T510 31H550V0Q509 3 360 3Q212 3 171 0V31H211Q262 31 285
37T312 51T316 79V884Q316 898 315 904T310 915T295 922T241 924Q202 924 176 922T130 910T100 888T81 852T69 801T61 730H36L55 955H666L685 730Z" />
<glyph unicode="U" glyph-name="U" horiz-adv-x="750" d="M716 930Q666 930 640 915T613 861V351Q613 295 611 277Q600 146 537 62T388 -22Q284 -22 210 78T136 314V883Q136 912 124 921T57 930H33V961Q68 958 181 958Q293 958 328 961V930H304Q250 930 238 921T225
883V304Q225 154 275 82T390 9Q468 9 525 97T582 316V856Q582 871 580 880T570 902T538 923T479 930V961L598 958L716 961V930Z" />
<glyph unicode="V" glyph-name="V" horiz-adv-x="750" d="M732 930Q695 930 672 917T643 891T631 861L396 -1Q393 -14 389 -18T374 -22T360 -18T353 -1L111 888Q103 918 88 924T17 930V961L143 958Q251 958 286 961V930Q198 930 198 899L202 881L403 142L597 854Q601
868 601 876Q601 897 581 913T521 930V961L635 958Q687 958 732 961V930Z" />
<glyph unicode="W" glyph-name="W" horiz-adv-x="1028" d="M1010 930Q934 930 918 862L717 -1Q712 -22 699 -22T681 -2L514 715H513L346 -2Q341 -22 328 -22Q314 -22 310 -1L103 890Q99 910 89 918T65 928T17 930V961L138 958Q243 958 279 961V930Q190 930 190
898Q190 893 194 878L359 170H360L501 772L473 888Q466 917 453 923T387 930V961L509 958Q614 958 650 961V930Q560 930 560 898L563 885L730 170H731L890 854L894 874Q894 894 871 911T800 930V961L919 958Q965 958 1010 961V930Z" />
<glyph unicode="X" glyph-name="X" horiz-adv-x="750" d="M729 0L602 3Q495 3 459 0V31Q491 32 512 42T534 62Q534 69 530 75L353 443L188 102Q182 91 182 83Q182 65 203 49T259 31V0Q223 3 131 3L20 0V31Q119 31 151 97L336 479L138 892Q127 915 111 922T51 930H34V961L161
958Q268 958 304 961V930Q274 929 252 919T229 899Q229 895 234 885L382 575L521 861Q526 874 526 878Q526 894 506 911T449 930V961Q489 958 576 958L687 961V930Q589 930 557 865L399 540L625 70Q636 47 650 39T712 31H729V0Z" />
<glyph unicode="Y" glyph-name="Y" horiz-adv-x="750" d="M740 930Q656 930 627 865L417 384V80Q417 49 429 40T497 31H520V0Q484 3 374 3T228 0V31H252Q306 31 318 40T331 78V384L111 888Q98 917 84 923T9 930V961L136 958Q244 958 280 961V930Q202 930 202 902Q202
894 207 884L404 432L591 860Q597 875 597 883Q597 901 581 915T529 930V961L643 958Q694 958 740 961V930Z" />
<glyph unicode="Z" glyph-name="Z" horiz-adv-x="611" d="M560 267L543 0H82Q65 0 61 2T56 17Q56 26 62 38L460 930H296Q237 930 198 917T137 876T106 816T94 736H69L80 961H528Q537 961 540 961T548 959T553 954T554 945Q554 937 548 925L150 34H322Q376 34 414
45T475 75T510 125T527 188T535 267H560Z" />
<glyph unicode="[" glyph-name="bracketleft" horiz-adv-x="278" d="M255 -528H118V1028H255V988H158V-488H255V-528Z" />
<glyph unicode="\" glyph-name="backslash" horiz-adv-x="500" d="M443 -490Q443 -498 437 -504T423 -510Q409 -510 401 -488L61 982L56 1000Q56 1008 62 1014T76 1020Q90 1020 98 998L438 -472L443 -490Z" />
<glyph unicode="]" glyph-name="bracketright" horiz-adv-x="278" d="M159 -528H22V-488H119V988H22V1028H159V-528Z" />
<glyph unicode="^" glyph-name="asciicircum" horiz-adv-x="611" d="M591 584L579 562L307 685L36 562L25 584L308 744L591 584Z" />
<glyph unicode="_" glyph-name="underscore" horiz-adv-x="750" d="M750 -138H0V-112H750V-138Z" />
<glyph unicode="`" glyph-name="grave" horiz-adv-x="500" d="M312 581L291 568L137 803Q126 820 126 830Q126 844 137 854T162 864Q172 864 179 859T188 850T196 835L312 581Z" />
<glyph unicode="a" glyph-name="a" horiz-adv-x="500" d="M493 89Q493 36 465 15T411 -6Q378 -6 357 18T333 76Q318 38 284 14T202 -11Q166 -11 132 -2T70 32T42 95Q42 180 142 225Q202 254 326 261V298Q326 360 294 393T220 426Q147 426 112 380Q142 379 152
364T163 334Q163 314 151 301T117 288Q97 288 84 300T71 335Q71 384 115 416T222 448Q304 448 359 393Q376 376 384 354T394 318T395 275V75Q395 69 397 60T408 38T432 25Q468 25 468 89V145H493V89ZM326 140V240Q215 236 167 192T119 96Q119 59 145 35T209 11Q251
11 288 43T326 140Z" />
<glyph unicode="b" glyph-name="b" horiz-adv-x="556" d="M521 216Q521 121 455 55T298 -11Q215 -11 167 62L131 0H106V874Q106 911 93 920T28 930V961L172 972V377Q230 442 309 442Q395 442 458 376T521 216ZM438 217Q438 310 409 356Q369 420 304 420Q231 420
186 356Q175 340 175 320V114Q175 93 189 72Q229 11 294 11Q364 11 407 75Q438 123 438 217Z" />
<glyph unicode="c" glyph-name="c" horiz-adv-x="444" d="M415 119Q415 114 411 102T395 69T366 32T318 2T249 -11Q161 -11 98 55T34 216T96 379T251 448Q312 448 358 419T404 341Q404 319 391 307T358 294Q337 294 325 307T312 340Q312 349 315 357T329 375T359
386Q323 423 252 423Q201 423 159 375T117 218Q117 161 131 119T168 56T213 24T258 14Q356 14 389 119Q392 129 402 129Q415 129 415 119Z" />
<glyph unicode="d" glyph-name="d" horiz-adv-x="556" d="M527 0L380 -11V55Q328 -11 246 -11Q160 -11 97 55T34 215Q34 310 100 376T257 442Q333 442 383 380V874Q383 911 370 920T305 930V961L449 972V87Q449 50 462 41T527 31V0ZM380 118V323Q380 343 369 360Q328
420 261 420Q191 420 148 356Q117 308 117 214Q117 121 146 75Q186 11 251 11Q325 11 369 81Q380 98 380 118Z" />
<glyph unicode="e" glyph-name="e" horiz-adv-x="444" d="M415 119Q415 110 406 91T378 48T325 7T248 -11Q160 -11 94 55T28 220Q28 314 88 381T236 448Q324 448 369 391T415 252Q415 237 411 234T390 231H111Q111 129 141 81Q183 14 254 14Q264 14 275 16T311
26T356 58T389 117Q392 131 402 131Q415 131 415 119ZM349 252Q349 273 346 296T332 352T297 405T236 426Q220 426 203 419T164 396T129 342T112 252H349Z" />
<glyph unicode="f" glyph-name="f" horiz-adv-x="306" d="M357 886Q357 864 345 853T313 841T282 853T270 884Q270 927 321 927Q302 961 267 961Q224 961 200 874T175 702V431H292V400H178V78Q178 49 190 40T254 31H275V0Q235 3 148 3L34 0V31Q87 31 99 37T112
76V400H33V431H112V699Q112 768 130 832T185 940T267 983Q307 983 332 953T357 886Z" />
<glyph unicode="g" glyph-name="g" horiz-adv-x="500" d="M485 404Q485 389 476 382T456 374Q444 374 436 382T427 403Q427 424 443 430L433 431Q384 431 343 392Q384 354 384 295T337 193T222 149Q166 149 123 180Q106 160 106 133Q106 108 121 89T159 66Q166
65 234 65Q274 65 296 64T349 57T406 37Q471 1 471 -77Q471 -134 406 -170T249 -206Q157 -206 93 -170T28 -79Q28 -47 52 -19T120 21Q76 49 76 110Q76 157 107 193Q60 232 60 296Q60 355 107 398T222 442Q282 442 328 406Q376 453 434 453Q460 453 472 437T485
404ZM309 296Q309 419 222 419Q178 419 151 379Q135 352 135 295Q135 172 222 172Q266 172 293 212Q309 239 309 296ZM419 -79Q419 -49 402 -30T350 -4T291 5T221 7H162Q128 5 104 -20T80 -79Q80 -120 128 -151T250 -183Q322 -183 370 -152T419 -79Z" />
<glyph unicode="h" glyph-name="h" horiz-adv-x="556" d="M535 0L423 3L310 0V31Q363 31 375 37T388 76V309Q388 360 373 390T314 420Q262 420 221 377T179 260V76Q179 44 191 38T257 31V0L145 3L32 0V31Q85 31 97 37T110 76V874Q110 911 97 920T32 930V961L176
972V346H177Q193 382 229 412T321 442Q396 442 426 405Q448 380 452 352T457 252V61Q458 40 474 36T535 31V0Z" />
<glyph unicode="i" glyph-name="i" horiz-adv-x="278" d="M247 0Q145 3 143 3L33 0V31Q86 31 98 37T111 76V345Q111 382 99 391T37 400V431L177 442V75Q177 45 187 38T247 31V0ZM192 716Q192 696 177 680T138 663Q116 663 101 679T85 716Q85 736 100 752T139 769Q161
769 176 753T192 716Z" />
<glyph unicode="j" glyph-name="j" horiz-adv-x="306" d="M210 -50Q210 -117 170 -161T73 -205Q27 -205 -6 -184T-40 -125Q-40 -105 -28 -92T6 -79T39 -92T52 -125Q52 -143 42 -154T17 -170Q43 -183 71 -183Q94 -183 109 -170T132 -134T141 -92T144 -52V344Q144
381 130 390T58 400V431L210 442V-50ZM210 716Q210 696 195 680T156 663Q134 663 119 679T103 716Q103 736 118 752T157 769Q179 769 194 753T210 716Z" />
<glyph unicode="k" glyph-name="k" horiz-adv-x="528" d="M511 0Q468 3 424 3L316 0V31Q352 31 352 54Q352 70 252 207Q240 225 233 234L169 179V76Q169 44 181 38T247 31V0L137 3L28 0V31Q81 31 93 37T106 76V874Q106 911 93 920T28 930V961L172 972V214L313
336Q335 355 335 375Q335 398 306 400V431Q348 428 418 428Q459 428 488 431V400Q425 397 362 346Q348 335 315 306T281 274Q281 273 282 271T285 266T287 263L414 84Q440 48 459 40T511 31V0Z" />
<glyph unicode="l" glyph-name="l" horiz-adv-x="278" d="M255 0L144 3L33 0V31Q86 31 98 37T111 76V874Q111 911 98 920T33 930V961L177 972V76Q177 44 189 38T255 31V0Z" />
<glyph unicode="m" glyph-name="m" horiz-adv-x="833" d="M813 0L701 3L588 0V31Q641 31 653 37T666 76V309Q666 360 651 390T592 420Q540 420 499 377T457 260V76Q457 44 469 38T535 31V0L423 3L310 0V31Q363 31 375 37T388 76V309Q388 360 373 390T314 420Q262
420 221 377T179 260V76Q179 44 191 38T257 31V0L145 3L32 0V31Q85 31 97 37T110 76V344Q110 381 97 390T32 400V431L173 442V339H174Q220 442 321 442Q438 442 454 344Q471 382 507 412T599 442Q674 442 704 405Q726 380 730 352T735 252V61Q736 40 752 36T813
31V0Z" />
<glyph unicode="n" glyph-name="n" horiz-adv-x="556" d="M535 0L423 3L310 0V31Q363 31 375 37T388 76V309Q388 360 373 390T314 420Q262 420 221 377T179 260V76Q179 44 191 38T257 31V0L145 3L32 0V31Q85 31 97 37T110 76V344Q110 381 97 390T32 400V431L173
442V339H174Q220 442 321 442Q396 442 426 405Q448 380 452 352T457 252V61Q458 40 474 36T535 31V0Z" />
<glyph unicode="o" glyph-name="o" horiz-adv-x="500" d="M471 214Q471 120 406 55T249 -11Q160 -11 94 54T28 214T92 378T250 448Q341 448 406 379T471 214ZM388 222Q388 318 362 361Q323 426 249 426Q217 426 186 409T135 359Q111 315 111 222Q111 125 136 81Q175
14 250 14Q287 14 318 34T366 88Q388 132 388 222Z" />
<glyph unicode="p" glyph-name="p" horiz-adv-x="556" d="M521 216Q521 121 455 55T298 -11Q264 -11 234 4T192 30T175 50V-118Q175 -150 187 -156T253 -163V-194L140 -191L28 -194V-163Q81 -163 93 -157T106 -118V350Q106 383 94 391T28 400V431L172 442V376Q232
442 312 442Q397 442 459 376T521 216ZM438 216Q438 300 399 358T304 417Q265 417 231 396T175 337V114Q175 99 177 94T189 72Q229 11 294 11Q351 11 394 69T438 216Z" />
<glyph unicode="q" glyph-name="q" horiz-adv-x="528" d="M527 -194L414 -191L302 -194V-163Q355 -163 367 -157T380 -118V61Q325 -11 247 -11Q160 -11 97 55T34 215Q34 311 100 376T255 442Q292 442 322 424T366 388T389 351L427 442H449V-118Q449 -150 461 -156T527
-163V-194ZM383 136V277Q383 324 350 370T261 417Q204 417 161 360T117 215Q117 129 156 70T251 11Q305 11 343 52Q383 96 383 136Z" />
<glyph unicode="r" glyph-name="r" horiz-adv-x="392" d="M364 381Q364 359 351 348T321 337Q303 337 291 348T278 380Q278 392 283 401T293 414T301 419Q299 420 290 420Q235 420 204 365T172 232V78Q172 49 184 40T248 31H269V0Q229 3 142 3L28 0V31Q81 31 93
37T106 76V344Q106 381 93 390T28 400V431L167 442V335H168Q181 376 211 409T290 442Q322 442 343 424T364 381Z" />
<glyph unicode="s" glyph-name="s" horiz-adv-x="394" d="M360 128Q360 69 320 29T199 -11Q134 -11 89 32Q83 26 79 21T73 14T71 11T69 9Q49 -11 44 -11Q36 -11 35 -7T33 13V145Q33 156 33 160T37 167T46 170Q53 170 55 167T60 153Q75 84 107 48T199 11Q255 11
283 36T312 102Q312 175 208 194Q148 206 123 214T76 240Q33 275 33 325T71 411T193 448Q249 448 287 420Q298 429 304 436Q317 448 324 448Q332 448 333 443T335 424V323Q335 312 335 308T331 302T322 299Q311 299 310 308Q302 429 193 429Q134 429 108 407T81
353Q81 336 89 323T107 303T137 288T169 279T204 271Q284 256 318 223Q360 181 360 128Z" />
<glyph unicode="t" glyph-name="t" horiz-adv-x="389" d="M332 124Q332 70 307 30T233 -11Q215 -11 197 -7T156 10T119 51T104 124V400H19V422Q65 424 95 456T136 529T148 615H173V431H316V400H173V122Q173 14 240 14Q269 14 288 43T307 126V181H332V124Z" />
<glyph unicode="u" glyph-name="u" horiz-adv-x="556" d="M535 0L391 -11V77H390Q349 -11 262 -11Q218 -11 188 0T143 25T120 66T111 109T110 158V308Q110 376 100 388T32 400V431L179 442V110Q179 86 181 72T191 42T218 19T267 11Q321 11 354 55T388 166V344Q388
381 375 390T310 400V431L457 442V87Q457 50 470 41T535 31V0Z" />
<glyph unicode="v" glyph-name="v" horiz-adv-x="528" d="M508 400Q478 400 457 387T430 362T416 333L285 8Q277 -11 264 -11Q255 -11 252 -8T243 8L99 363Q89 388 77 394T19 400V431Q64 428 116 428L225 431V400Q168 400 168 374Q168 370 174 357L286 78L388
333Q394 350 394 357Q394 374 383 386T346 400V431L433 428Q473 428 508 431V400Z" />
<glyph unicode="w" glyph-name="w" horiz-adv-x="722" d="M703 400Q641 398 619 336L502 8Q491 -10 482 -11Q469 -11 462 8L360 292L259 9Q255 -3 252 -7T239 -11T226 -6T218 11L92 365Q83 388 70 394T18 400V431L111 428L220 431V400Q161 400 161 373Q161 367
166 355L261 88L347 330Q329 379 324 385Q312 400 261 400V431Q306 428 350 428L454 431V400Q395 400 395 373Q395 369 400 354L499 75L590 331Q595 344 595 352Q595 374 580 386T537 400V431L630 428Q670 428 703 431V400Z" />
<glyph unicode="x" glyph-name="x" horiz-adv-x="528" d="M516 0Q471 3 420 3L312 0V31Q330 32 339 40T348 56Q348 60 327 89L251 189Q175 99 165 78Q161 69 161 62Q161 35 190 31V0L95 3Q51 3 12 0V31Q90 31 140 91Q156 110 234 210L135 339Q100 384 85 392T17
400V431Q57 428 112 428L220 431V400Q185 398 185 375Q185 367 194 357L272 256L334 334Q349 352 349 369Q349 397 320 400V431Q359 428 416 428Q459 428 498 431V400Q422 398 379 348Q360 327 287 235L421 62Q437 41 455 36T516 31V0Z" />
<glyph unicode="y" glyph-name="y" horiz-adv-x="528" d="M508 400Q441 400 415 336L239 -91Q191 -205 111 -205Q73 -205 46 -182T19 -124Q19 -103 31 -92T61 -81Q79 -81 91 -92T103 -123Q103 -160 64 -165Q83 -183 111 -183Q141 -183 165 -161T199 -118T225 -59L250
0L100 365Q90 389 75 394T19 400V431Q64 428 116 428L225 431V400Q169 400 169 374Q169 371 175 356L286 87L387 333Q393 347 393 357Q393 398 346 400V431L433 428Q473 428 508 431V400Z" />
<glyph unicode="z" glyph-name="z" horiz-adv-x="444" d="M401 187L384 0H54Q38 0 33 2T28 14Q28 21 37 32L316 409H202Q123 409 98 380T67 270H42L53 431H373Q384 431 388 431T396 427T399 418T390 401L112 25H230Q313 25 341 59T376 187H401Z" />
<glyph unicode="{" glyph-name="braceleft" horiz-adv-x="500" d="M426 -518Q426 -528 416 -528H414Q331 -528 273 -469T214 -326V57Q214 133 177 186T82 239Q72 239 72 249V251Q72 261 82 261Q139 261 176 314T214 443V826Q214 909 272 968T414 1028H416Q426
1028 426 1018V1015Q426 1005 416 1005Q358 1005 321 953T284 826V443Q284 376 246 323T146 250Q207 230 245 177T284 57V-326Q284 -401 321 -453T416 -505Q426 -505 426 -515V-518Z" />
<glyph unicode="|" glyph-name="bar" horiz-adv-x="278" d="M158 -508Q158 -516 152 -522T138 -528T124 -522T118 -508V1007Q118 1016 124 1022T138 1028T152 1022T158 1007V-508Z" />
<glyph unicode="}" glyph-name="braceright" horiz-adv-x="500" d="M426 249Q426 239 416 239Q359 239 322 186T284 57V-326Q284 -409 226 -468T84 -528H82Q72 -528 72 -518V-515Q72 -505 82 -505Q140 -505 177 -453T214 -326V57Q214 124 252 177T352 250Q291
270 253 323T214 443V826Q214 901 177 953T82 1005Q72 1005 72 1015V1018Q72 1028 82 1028H84Q167 1028 225 969T284 826V443Q284 367 321 314T416 261Q426 261 426 251V249Z" />
<glyph unicode="~" glyph-name="asciitilde" horiz-adv-x="611" d="M575 290L521 246Q501 229 464 211Q424 193 391 193Q349 193 291 227Q226 264 187 264Q119 264 34 193L20 210L74 254Q94 271 131 289Q171 307 204 307Q246 307 304 273Q369 236 408 236Q476
236 561 307L575 290Z" />
<glyph unicode="&#xa0;" glyph-name="uni00A0" horiz-adv-x="500" />
<glyph unicode="&#xa1;" glyph-name="exclamdown" horiz-adv-x="278" d="M192 747T192 725T177 688T139 672T102 687T86 725T101 762T139 778T176 763ZM192 -155Q194 -188 176 -202T139 -216Q129 -216 118 -213T96 -194T86 -154L126 568Q126 575 126 577T127 583T129
588T133 590T139 591Q147 591 149 587T152 567L192 -155Z" />
<glyph unicode="&#xa2;" glyph-name="cent" horiz-adv-x="444" d="M415 119Q415 115 412 103T397 73T371 37T329 7T268 -10V-96H237V-11Q153 -6 94 59T34 216Q34 307 92 374T237 448V534H268V448Q325 443 364 415T404 341Q404 319 391 307T358 294Q337 294 325
307T312 340Q312 349 315 357T329 375T359 386Q329 417 268 422V14Q358 21 389 119Q392 129 402 129Q415 129 415 119ZM237 16V422Q189 415 153 367T117 218Q117 122 153 74T237 16Z" />
<glyph unicode="&#xa3;" glyph-name="sterling" horiz-adv-x="639" d="M611 186Q611 154 603 122T578 59T531 9T462 -10Q449 -10 435 -7T410 0T384 13T362 26T339 44T319 60T298 79T280 95Q261 52 223 21T140 -10Q108 -10 84 10T55 63V73Q55 123 90 159T176 195Q209
195 241 179L243 216V472H178Q156 472 156 488Q156 503 173 503H243V747Q245 835 293 910T418 986Q424 986 438 984Q479 976 509 949T554 885T576 810T583 735Q583 714 572 699T538 684Q517 684 504 696T491 729Q491 748 503 762T536 776Q548 776 556 772Q552 805
544 835T520 896T480 945T421 963Q313 963 313 718V503H409Q427 503 427 488Q427 472 405 472H313V229Q311 196 306 169Q300 148 300 144V142Q301 140 303 138T308 134T312 130Q314 128 333 111T360 88T385 68T415 49T444 39T477 33Q515 33 540 61T574 119T586
184V196Q588 205 599 205Q611 205 611 191V186ZM232 125V127Q231 134 207 142T165 151Q131 151 111 127T91 70Q91 44 106 29T141 13Q175 13 203 52T232 125Z" />
<glyph unicode="&#xa4;" glyph-name="currency" horiz-adv-x="737" d="M691 -25Q691 -33 686 -39T671 -45Q666 -45 662 -43T655 -38T647 -30T640 -23L565 52Q560 57 557 57H556Q553 57 538 45Q463 -10 366 -10Q277 -10 191 50Q184 57 179 57H178Q176 56 173 53T169
50L92 -27Q74 -45 65 -45Q58 -45 52 -39T45 -26Q45 -16 65 4L139 78Q146 85 147 87V89Q146 94 144 96Q80 191 80 277Q80 365 132 444Q147 462 147 466V468Q146 470 143 473T140 477L57 560Q45 572 45 580Q45 597 60 600L65 601Q70 601 74 599T81 594T89 586T96
579L171 504Q176 499 179 499H180Q183 499 198 511Q273 566 370 566Q459 566 545 506Q552 499 557 499H558Q560 500 563 503T567 506L644 583Q662 601 671 601Q679 601 685 595T691 582Q691 572 671 552L596 477Q596 476 593 473T589 468V467Q589 465 594 457Q656
375 656 279Q656 186 602 110L589 90V88Q590 86 593 83T596 79L678 -3Q691 -16 691 -25ZM616 280Q616 384 541 455T367 526Q264 526 192 451T120 277V264Q130 159 201 95T370 31Q474 31 545 105T616 280Z" />
<glyph unicode="&#xa5;" glyph-name="yen" horiz-adv-x="750" d="M740 930Q656 930 627 865L440 438H670V408H428L417 384V252H670V222H417V80Q417 49 429 40T497 31H520V0Q484 3 374 3T228 0V31H252Q306 31 318 40T331 78V222H80V252H331V384L321 408H80V438H307L111
888Q98 917 84 923T9 930V961L136 958Q244 958 280 961V930Q202 930 202 902Q202 894 207 884L401 438H406L591 860Q597 875 597 883Q597 901 581 915T529 930V961L643 958Q694 958 740 961V930Z" />
<glyph unicode="&#xa6;" glyph-name="brokenbar" horiz-adv-x="167" d="M103 -497Q103 -524 87 -526H83Q63 -526 63 -500V140Q63 170 79 173L84 174Q101 174 103 154V-497ZM103 361Q103 332 86 329H82Q63 329 63 357V995Q63 1025 79 1028L84 1029Q91 1029 96 1024T103
1010V361Z" />
<glyph unicode="&#xa7;" glyph-name="section" horiz-adv-x="484" d="M447 194Q447 103 356 -18Q407 -104 407 -219Q407 -332 366 -412T242 -493Q194 -493 163 -465T117 -384T99 -281T94 -161Q94 -142 107 -129T140 -115T172 -128T186 -161T173 -193T140 -207Q132
-207 120 -203Q121 -255 125 -293T142 -369T180 -427T242 -447Q275 -447 297 -428T330 -373T343 -302T347 -219Q347 -84 248 6L159 87Q37 194 37 306Q37 396 128 517Q77 604 77 719Q77 832 118 912T242 993Q290 993 321 965T367 884T385 781T390 661Q390 642 377
629T344 615T312 628T298 661T311 693T344 707Q352 707 364 703Q363 755 359 793T342 869T304 927T242 947Q209 947 187 928T154 873T141 802T137 719Q137 584 236 494L325 413Q447 306 447 194ZM369 194Q369 280 279 361L190 442Q164 465 144 493Q115 436 115
306Q115 220 205 139L294 58Q321 34 340 6Q369 64 369 194Z" />
<glyph unicode="&#xa8;" glyph-name="dieresis" horiz-adv-x="500" d="M203 735T203 716T189 682T153 666Q132 666 118 680T103 716T117 751T153 766Q175 766 189 751ZM396 737T396 716T382 681T346 666Q324 666 310 681T296 716T310 750T346 766Q367 766 381 752Z" />
<glyph unicode="&#xa9;" glyph-name="copyright" horiz-adv-x="1111" d="M1055 241Q1055 -33 946 -250Q883 -376 783 -462T555 -549Q429 -549 329 -464T166 -253Q55 -32 55 242Q55 534 162 747Q304 1028 536 1051Q542 1052 554 1052Q671 1052 766 978T926 789Q1055
561 1055 241ZM1015 249Q1015 488 937 676Q910 741 874 797T790 903T681 982T553 1011Q403 1011 279 857Q94 626 94 239Q94 224 95 216T96 194T97 174Q110 -16 165 -154Q189 -216 223 -273T305 -386T418 -475T556 -509H565Q723 -502 846 -336Q1015 -109 1015 249ZM778
241Q778 145 724 66T576 -21H567Q480 -21 412 34T311 170T277 338Q277 424 310 505T412 641T567 696Q646 696 709 621Q713 630 725 646Q727 649 737 665T753 688T766 696Q777 696 777 681V420Q777 404 762 404Q755 404 751 407T746 414T745 425T744 435Q717 651
582 665Q535 665 498 644T440 591T404 513T385 426T380 337Q380 132 472 51Q523 10 575 10Q618 10 651 30T705 84T736 155T752 235V248Q754 257 765 257Q778 257 778 241Z" />
<glyph unicode="&#xaa;" glyph-name="ordfeminine" horiz-adv-x="444" d="M438 586Q438 546 411 528T344 509Q320 509 302 522T279 562H278Q266 533 235 519T170 504Q118 504 80 525T41 585Q41 629 82 657T171 694T270 703L271 779Q271 871 255 931Q231 1024 190
1024Q156 1024 132 994Q123 983 117 968T108 942T102 910T98 881T96 848T95 818Q109 822 117 822Q136 822 149 809T162 777Q162 757 149 744T116 730Q95 730 83 743T70 781V798Q70 1046 192 1046Q242 1046 276 1005T324 916T340 817V579Q340 561 350 551T376 541Q412
541 412 582V616H437Q437 611 437 601T438 586ZM270 612V682Q239 682 207 674T148 643T120 587Q120 563 137 545T182 526Q217 526 243 551T270 612ZM398 464Q398 453 382 453H60Q44 453 44 464Q44 471 52 474Q58 476 63 476Q66 476 71 476T79 475H388Q398 473 398
464Z" />
<glyph unicode="&#xab;" glyph-name="guillemotleft" horiz-adv-x="556" d="M277 12Q278 8 275 4T267 0H265Q258 0 256 7Q210 138 114 235Q111 236 111 242Q111 246 114 249Q210 345 256 477Q258 483 265 483H267Q272 483 275 480T277 471Q249 351 183 242Q248
134 277 12ZM444 12Q445 8 442 4T434 0H432Q425 0 423 7Q377 138 281 235Q278 236 278 242Q278 246 281 249Q377 345 423 477Q424 483 432 483H434Q438 483 441 480T444 471Q416 351 350 242Q415 134 444 12Z" />
<glyph unicode="&#xac;" glyph-name="logicalnot" horiz-adv-x="667" d="M611 121Q611 91 590 91Q571 92 571 123V317H87Q55 317 55 337Q55 353 73 357H587Q611 357 611 328V121Z" />
<glyph unicode="&#xae;" glyph-name="registered" horiz-adv-x="1111" d="M1055 241Q1055 -33 946 -250Q883 -376 783 -462T555 -549Q429 -549 329 -464T166 -253Q55 -32 55 242Q55 534 162 747Q304 1028 536 1051Q542 1052 554 1052Q671 1052 766 978T926 789Q1055
561 1055 241ZM1015 249Q1015 488 937 676Q910 741 874 797T790 903T681 982T553 1011Q403 1011 279 857Q94 626 94 239Q94 224 95 216T96 194T97 174Q110 -16 165 -154Q189 -216 223 -273T305 -386T418 -475T556 -509H565Q723 -502 846 -336Q1015 -109 1015 249ZM874
112Q874 60 854 20T784 -21Q737 -21 704 -7T654 31T630 80T623 135Q623 143 623 159T624 183Q624 250 596 288T516 327H431V76Q431 47 447 40T500 32H534V1H242V32Q247 32 259 32T279 31Q345 31 345 76V600Q345 627 328 635T279 644Q273 644 261 644T242 643V674H462Q471
674 489 674T517 675Q568 675 622 659T719 600T763 499Q763 477 757 458T745 425T722 399T696 378T665 361T635 348T603 335Q622 329 639 317Q659 305 673 288T694 258T709 215T719 172T727 117Q741 1 789 1Q813 1 826 21T842 66T849 111T861 132Q874 132 874 112ZM660
496Q660 536 650 564T624 608T584 631T540 641T490 643H480Q456 643 444 638T431 612V349H495Q566 349 603 369Q660 401 660 496Z" />
<glyph unicode="&#xaf;" glyph-name="overscore" horiz-adv-x="500" d="M430 700H69V732H430V700Z" />
<glyph unicode="0;" glyph-name="degree" horiz-adv-x="333" d="M276 897T276 852T244 775T167 743Q121 743 90 775T58 852T89 929T167 961Q212 961 244 929ZM237 823T237 852T217 901T167 922T118 902T97 852T117 803T167 782T216 802Z" />
<glyph unicode="1;" glyph-name="plusminus" horiz-adv-x="778" d="M722 21Q722 0 694 0Q690 0 684 0T674 1H81Q55 1 55 20Q55 28 61 34T76 41H369V314H80Q55 314 55 334T80 354H369V642Q369 667 388 667Q409 667 409 640V354H696Q722 354 722 334T697 314H409V41H699Q708
41 715 36T722 21Z" />
<glyph unicode="2;" glyph-name="two.superior" horiz-adv-x="444" d="M393 662L365 487H50V539Q50 550 59 562T89 591T116 614Q128 626 163 659T216 711T257 760T291 820T302 882Q302 936 275 978T196 1020Q163 1020 135 1001T92 949Q96 950 103 950Q125
950 140 936T155 898Q155 874 140 860T101 845Q80 845 66 859T50 894V899Q50 963 98 1007T213 1051Q287 1051 340 1002T393 878Q393 858 389 840T373 803T353 774T325 745T297 721T264 697T235 675Q208 655 161 616T100 565H250Q272 565 284 566H313Q337 566 345
572Q350 577 354 589T360 610T364 638T368 662H393Z" />
<glyph unicode="3;" glyph-name="three.superior" horiz-adv-x="444" d="M401 636Q401 562 343 519T212 475Q151 475 97 502T42 586Q42 611 58 626T100 642H107Q128 639 140 623T153 585Q153 565 139 549T104 532V531Q166 504 213 504Q230 504 241 509Q277
527 287 559T298 639Q298 764 205 764H175Q168 766 166 773V775Q166 783 176 786T204 790T228 795Q281 816 281 935Q281 974 264 1000T213 1026Q139 1026 100 923Q109 926 120 926Q142 926 156 911T171 875Q171 853 156 839T119 825Q69 825 69 883T108 996T209
1051H218Q274 1051 322 1021T374 939V932Q374 829 259 779Q313 770 354 733T401 644V636Z" />
<glyph unicode="4;" glyph-name="acute" horiz-adv-x="500" d="M374 830Q374 820 363 803L209 568L188 581L304 835Q309 845 311 849T321 859T338 864Q351 864 362 854T374 830Z" />
<glyph unicode="5;" glyph-name="mu" horiz-adv-x="556" d="M535 0L391 -11V77H390Q349 -11 262 -11Q213 -11 179 2V-118Q179 -150 191 -156T257 -163V-194L144 -191L32 -194V-163Q85 -163 97 -157T110 -118V308Q110 376 100 388T32 400V431L179 442V110Q179
86 181 72T191 42T218 19T267 11Q321 11 354 55T388 166V344Q388 381 375 390T310 400V431L457 442V87Q457 50 470 41T535 31V0Z" />
<glyph unicode="6;" glyph-name="paragraph" horiz-adv-x="611" d="M582 954Q582 933 555 933H499V-153H556Q581 -153 581 -173T556 -193H292Q266 -193 266 -174Q266 -153 293 -153H349V371Q304 371 254 391Q166 424 111 500T55 674Q55 801 129 887T318 973H555Q582
973 582 954ZM459 -153V933H389V-153H459Z" />
<glyph unicode="7;" glyph-name="middot" horiz-adv-x="278" d="M192 272T192 250T177 213T139 197T102 212T86 250T101 287T139 303T176 288Z" />
<glyph unicode="8;" glyph-name="cedilla" horiz-adv-x="444" d="M367 -126Q367 -176 293 -192Q246 -203 175 -203H131V-181H162Q298 -181 298 -126Q298 -102 276 -87T215 -71V5H284V-55Q367 -68 367 -126Z" />
<glyph unicode="9;" glyph-name="one.superior" horiz-adv-x="444" d="M374 487H83V518Q89 518 102 518T123 517Q192 517 192 561V959Q134 917 69 917V948Q170 948 235 1036Q241 1051 252 1051Q267 1051 267 1035V560Q267 517 332 517Q339 517 353 517T374 518V487Z" />
<glyph unicode="a;" glyph-name="ordmasculine" horiz-adv-x="444" d="M415 769Q415 674 367 594T232 504Q182 504 142 528T77 591T41 677T28 771Q28 831 46 889T108 993T210 1046Q262 1046 302 1020T367 953T403 864T415 769ZM332 795Q332 842 328 878Q323
934 296 979T220 1024Q214 1024 204 1022Q110 993 110 806V771Q110 741 112 730Q113 723 113 710T114 693Q118 653 127 620T161 558T221 529Q247 529 267 541T298 578T317 627T327 686T331 742T332 795ZM398 464Q398 453 382 453H60Q44 453 44 464Q44 471 52 474Q58
476 63 476Q66 476 71 476T79 475H388Q398 473 398 464Z" />
<glyph unicode="b;" glyph-name="guillemotright" horiz-adv-x="556" d="M445 242Q445 238 442 235Q346 138 300 7Q298 0 291 0H289Q284 0 281 4T279 12Q306 134 373 242Q306 350 279 471Q278 476 281 479T289 483H291Q298 483 300 477Q346 345 442 249Q445
243 445 242ZM278 242Q278 238 275 235Q179 138 133 7Q131 0 124 0H122Q117 0 114 4T112 12Q139 134 206 242Q139 350 112 471Q111 476 114 479T122 483H124Q132 483 133 477Q179 345 275 249Q278 243 278 242Z" />
<glyph unicode="c;" glyph-name="onequarter" horiz-adv-x="444" d="M415 -54H316V-116Q316 -141 324 -150Q337 -162 381 -162H413V-193H141V-162H163Q189 -162 203 -160T227 -147T238 -116V-54H28Q28 -51 28 -45T27 -36Q27 -21 46 6L229 297Q233 303 241
318T257 344T272 367T287 385T301 392Q317 392 317 374Q317 372 317 368T316 362V-23H415V-54ZM374 478H83V509Q88 509 100 509T120 508Q192 508 192 551V987Q149 966 69 966V997Q159 997 215 1030Q217 1031 231 1041T253 1051Q267 1051 267 1035V551Q267 508 332
508Q339 508 353 508T374 509V478ZM243 -23V276L56 -23H243ZM435 438T435 418T409 398H54Q51 398 45 398T36 397Q9 397 9 418Q9 434 24 437Q34 439 39 439Q43 439 50 439T60 438H410Q435 438 435 418Z" />
<glyph unicode="d;" glyph-name="onehalf" horiz-adv-x="444" d="M393 -18L365 -193H50Q50 -191 50 -186T49 -178Q49 -170 60 -155L129 -73Q136 -65 171 -24T220 35T256 87T290 152T301 213V223Q301 272 274 310T197 349Q167 349 140 334T96 294Q121 294 138
280T155 241Q155 219 140 204T102 189Q76 189 63 205T50 245Q50 306 99 343T213 380Q285 380 339 338T393 223Q393 208 391 194T383 166T372 142T356 117T339 96T319 74T299 54T277 34T257 16Q234 -5 124 -115H254Q303 -115 327 -113Q337 -111 344 -106T355 -89T361
-69T365 -43T368 -18H393ZM374 478H83V509Q88 509 100 509T120 508Q192 508 192 551V987Q149 966 69 966V997Q159 997 215 1030Q217 1031 231 1041T253 1051Q267 1051 267 1035V551Q267 508 332 508Q339 508 353 508T374 509V478ZM435 438T435 418T409 398H54Q51
398 45 398T36 397Q9 397 9 418Q9 434 24 437Q34 439 39 439Q43 439 50 439T60 438H410Q435 438 435 418Z" />
<glyph unicode="e;" glyph-name="threequarters" horiz-adv-x="444" d="M415 -54H316V-116Q316 -141 324 -150Q337 -162 381 -162H413V-193H141V-162H163Q189 -162 203 -160T227 -147T238 -116V-54H28Q28 -51 28 -45T27 -36Q27 -21 46 6L229 297Q233 303 241
318T257 344T272 367T287 385T301 392Q317 392 317 374Q317 372 317 368T316 362V-23H415V-54ZM401 619Q401 548 345 502T214 456Q178 456 142 465T74 502T42 570Q42 596 58 612T98 628T137 612T153 572Q153 550 139 535T101 517V516Q159 484 214 484Q298 484 298
624Q298 677 277 715T209 754H176Q167 756 166 763V765Q166 773 177 776T206 781T229 785Q281 806 281 930Q281 971 264 998T213 1026Q149 1026 109 971H117Q142 971 156 957T171 920T156 884T120 870Q98 870 84 885T69 923Q69 982 115 1016T218 1051Q276 1051
325 1018T375 927Q375 911 367 881Q359 852 341 830T307 797T259 769Q317 758 359 717T401 619ZM243 -23V276L56 -23H243ZM435 438T435 418T409 398H54Q51 398 45 398T36 397Q9 397 9 418Q9 434 24 437Q34 439 39 439Q43 439 50 439T60 438H410Q435 438 435 418Z"
/>
<glyph unicode="f;" glyph-name="questiondown" horiz-adv-x="472" d="M275 747T275 725T260 688T222 672T185 687T169 725T184 762T222 778T259 763ZM415 -4Q415 -82 360 -143T222 -205Q193 -205 167 -196T115 -167T72 -103T56 0Q56 92 102 154Q159 229 184
316T210 523V567Q210 578 210 582T213 588T222 591Q235 591 235 573V541Q235 426 222 332T165 143Q139 88 139 -10Q139 -35 139 -48T142 -86T149 -124T164 -153T188 -176T224 -183Q277 -183 323 -147T385 -44Q377 -46 369 -46Q349 -46 336 -34T323 0T337 33T369
46Q376 46 384 44T404 30T415 -4Z" />
<glyph unicode="0;" glyph-name="Agrave" horiz-adv-x="750" d="M718 0L588 3Q481 3 445 0V31Q534 31 534 63Q532 70 531 76L469 325H223L169 107Q165 92 165 86Q165 64 187 48T247 31V0L132 3Q94 3 31 0V31Q85 31 106 51T136 103L353 973Q356 986 360 990T375
994Q385 994 389 990T396 973L621 72Q627 47 641 39T701 31H718V0ZM461 356L346 814L231 356H461ZM472 1046L460 1024L209 1150Q191 1161 186 1168Q176 1185 186 1202T216 1220Q225 1220 245 1208L472 1046Z" />
<glyph unicode="1;" glyph-name="Aacute" horiz-adv-x="750" d="M718 0L588 3Q481 3 445 0V31Q534 31 534 63Q532 70 531 76L469 325H223L169 107Q165 92 165 86Q165 64 187 48T247 31V0L132 3Q94 3 31 0V31Q85 31 106 51T136 103L353 973Q356 986 360 990T375
994Q385 994 389 990T396 973L621 72Q627 47 641 39T701 31H718V0ZM461 356L346 814L231 356H461ZM564 1168Q559 1161 541 1150L290 1024L278 1046L505 1208Q525 1220 534 1220Q554 1220 564 1203T564 1168Z" />
<glyph unicode="2;" glyph-name="Acircumflex" horiz-adv-x="750" d="M718 0L588 3Q481 3 445 0V31Q534 31 534 63Q532 70 531 76L469 325H223L169 107Q165 92 165 86Q165 64 187 48T247 31V0L132 3Q94 3 31 0V31Q85 31 106 51T136 103L353 973Q356 986 360
990T375 994Q385 994 389 990T396 973L621 72Q627 47 641 39T701 31H718V0ZM461 356L346 814L231 356H461ZM541 1029L519 1014L375 1143L230 1014L208 1029L375 1210L541 1029Z" />
<glyph unicode="3;" glyph-name="Atilde" horiz-adv-x="750" d="M718 0L588 3Q481 3 445 0V31Q534 31 534 63Q532 70 531 76L469 325H223L169 107Q165 92 165 86Q165 64 187 48T247 31V0L132 3Q94 3 31 0V31Q85 31 106 51T136 103L353 973Q356 986 360 990T375
994Q385 994 389 990T396 973L621 72Q627 47 641 39T701 31H718V0ZM461 356L346 814L231 356H461ZM569 1083Q548 1059 539 1050T509 1028T467 1014H458Q426 1014 367 1033T278 1053Q236 1053 197 1014L180 1029Q182 1031 189 1039T198 1049T207 1059T217 1068T226
1076T237 1084T249 1089T262 1094T276 1097T292 1098Q323 1098 382 1079T471 1059Q486 1059 498 1063T517 1070T536 1084T553 1098L569 1083Z" />
<glyph unicode="4;" glyph-name="Adieresis" horiz-adv-x="750" d="M718 0L588 3Q481 3 445 0V31Q534 31 534 63Q532 70 531 76L469 325H223L169 107Q165 92 165 86Q165 64 187 48T247 31V0L132 3Q94 3 31 0V31Q85 31 106 51T136 103L353 973Q356 986 360
990T375 994Q385 994 389 990T396 973L621 72Q627 47 641 39T701 31H718V0ZM461 356L346 814L231 356H461ZM328 1083T328 1064T314 1030T278 1014Q257 1014 243 1028T228 1064T242 1099T278 1114Q300 1114 314 1099ZM521 1085T521 1064T507 1029T471 1014Q449 1014
435 1029T421 1064T435 1098T471 1114Q492 1114 506 1100Z" />
<glyph unicode="5;" glyph-name="Aring" horiz-adv-x="750" d="M718 0L588 3Q481 3 445 0V31Q534 31 534 63Q532 70 531 76L469 325H223L169 107Q165 92 165 86Q165 64 187 48T247 31V0L132 3Q94 3 31 0V31Q85 31 106 51T136 103L353 973Q356 986 360 990T375
994Q385 994 389 990T396 973L621 72Q627 47 641 39T701 31H718V0ZM461 356L346 814L231 356H461ZM445 1017T445 1082T375 1147T305 1082T375 1017ZM471 1083Q471 1046 444 1020T374 994Q335 994 307 1019T279 1083Q279 1117 306 1143T376 1170Q416 1170 443 1144T471
1083Z" />
<glyph unicode="6;" glyph-name="AE" horiz-adv-x="903" d="M874 258L832 0H339V31Q391 31 403 37T416 76V446H256L169 105Q165 91 165 86Q165 65 186 49T247 31V0L132 3Q94 3 31 0V31Q118 31 136 100L347 929L321 930H258V961H818L846 736H821Q814 793 806
824T780 883T729 920T643 930H548Q514 930 507 923T499 890V477H584Q651 477 669 501T687 594H712V329H687Q687 397 669 421T584 446H499V71Q499 45 506 38T548 31H643Q759 31 800 90Q826 127 845 235Q846 242 849 258H874ZM416 477V882Q416 924 378 926L264 477H416Z"
/>
<glyph unicode="7;" glyph-name="Ccedilla" horiz-adv-x="722" d="M665 343Q665 291 653 235T615 124T544 30T439 -19L440 -55Q523 -68 523 -126Q523 -176 449 -192Q402 -203 331 -203H287V-181H318Q454 -181 454 -126Q454 -102 432 -87T371 -71V-19Q241 0
149 140T56 481Q56 695 160 839T405 983Q519 983 592 868L640 969Q644 979 646 981T654 983Q662 983 663 979T665 959V601Q665 584 663 581T649 577Q639 577 637 580T633 601Q630 647 623 690T599 782T559 868T499 928T414 952Q342 952 290 901T210 789Q159 672
159 480Q159 360 180 269T231 130T298 53T363 17T414 9Q513 9 575 103T640 350Q640 365 652 365Q661 365 663 361T665 343Z" />
<glyph unicode="8;" glyph-name="Egrave" horiz-adv-x="681" d="M652 258L610 0H33V31H57Q111 31 123 40T136 78V880Q136 909 124 918T57 927H33V958H596L624 733H599Q592 790 583 823T553 881T496 917T403 927H274Q240 927 233 920T225 887V513H315Q384 513
403 537T423 630H448V365H423Q423 433 404 457T315 482H225V71Q225 45 232 38T274 31H407Q450 31 481 36T535 56T572 86T597 131T614 187T627 258H652ZM437 1046L425 1024L174 1150Q156 1161 151 1168Q141 1185 151 1202T181 1220Q190 1220 210 1208L437 1046Z"
/>
<glyph unicode="9;" glyph-name="Eacute" horiz-adv-x="681" d="M652 258L610 0H33V31H57Q111 31 123 40T136 78V880Q136 909 124 918T57 927H33V958H596L624 733H599Q592 790 583 823T553 881T496 917T403 927H274Q240 927 233 920T225 887V513H315Q384 513
403 537T423 630H448V365H423Q423 433 404 457T315 482H225V71Q225 45 232 38T274 31H407Q450 31 481 36T535 56T572 86T597 131T614 187T627 258H652ZM529 1168Q524 1161 506 1150L255 1024L243 1046L470 1208Q490 1220 499 1220Q519 1220 529 1203T529 1168Z"
/>
<glyph unicode="a;" glyph-name="Ecircumflex" horiz-adv-x="681" d="M652 258L610 0H33V31H57Q111 31 123 40T136 78V880Q136 909 124 918T57 927H33V958H596L624 733H599Q592 790 583 823T553 881T496 917T403 927H274Q240 927 233 920T225 887V513H315Q384
513 403 537T423 630H448V365H423Q423 433 404 457T315 482H225V71Q225 45 232 38T274 31H407Q450 31 481 36T535 56T572 86T597 131T614 187T627 258H652ZM506 1029L484 1014L340 1143L195 1014L173 1029L340 1210L506 1029Z" />
<glyph unicode="b;" glyph-name="Edieresis" horiz-adv-x="681" d="M652 258L610 0H33V31H57Q111 31 123 40T136 78V880Q136 909 124 918T57 927H33V958H596L624 733H599Q592 790 583 823T553 881T496 917T403 927H274Q240 927 233 920T225 887V513H315Q384
513 403 537T423 630H448V365H423Q423 433 404 457T315 482H225V71Q225 45 232 38T274 31H407Q450 31 481 36T535 56T572 86T597 131T614 187T627 258H652ZM293 1083T293 1064T279 1030T243 1014Q222 1014 208 1028T193 1064T207 1099T243 1114Q265 1114 279 1099ZM486
1085T486 1064T472 1029T436 1014Q414 1014 400 1029T386 1064T400 1098T436 1114Q457 1114 471 1100Z" />
<glyph unicode="c;" glyph-name="Igrave" horiz-adv-x="361" d="M333 0Q298 3 180 3Q63 3 28 0V31H54Q110 31 123 40T136 78V883Q136 912 123 921T54 930H28V961Q63 958 180 958Q298 958 333 961V930H307Q251 930 238 921T225 883V78Q225 49 238 40T307 31H333V0ZM278
1046L266 1024L15 1150Q-3 1161 -8 1168Q-18 1185 -8 1202T22 1220Q31 1220 51 1208L278 1046Z" />
<glyph unicode="d;" glyph-name="Iacute" horiz-adv-x="361" d="M333 0Q298 3 180 3Q63 3 28 0V31H54Q110 31 123 40T136 78V883Q136 912 123 921T54 930H28V961Q63 958 180 958Q298 958 333 961V930H307Q251 930 238 921T225 883V78Q225 49 238 40T307 31H333V0ZM370
1168Q365 1161 347 1150L96 1024L84 1046L311 1208Q331 1220 340 1220Q360 1220 370 1203T370 1168Z" />
<glyph unicode="e;" glyph-name="Icircumflex" horiz-adv-x="361" d="M333 0Q298 3 180 3Q63 3 28 0V31H54Q110 31 123 40T136 78V883Q136 912 123 921T54 930H28V961Q63 958 180 958Q298 958 333 961V930H307Q251 930 238 921T225 883V78Q225 49 238 40T307
31H333V0ZM347 1029L325 1014L181 1143L36 1014L14 1029L181 1210L347 1029Z" />
<glyph unicode="f;" glyph-name="Idieresis" horiz-adv-x="361" d="M333 0Q298 3 180 3Q63 3 28 0V31H54Q110 31 123 40T136 78V883Q136 912 123 921T54 930H28V961Q63 958 180 958Q298 958 333 961V930H307Q251 930 238 921T225 883V78Q225 49 238 40T307
31H333V0ZM134 1083T134 1064T120 1030T84 1014Q63 1014 49 1028T34 1064T48 1099T84 1114Q106 1114 120 1099ZM327 1085T327 1064T313 1029T277 1014Q255 1014 241 1029T227 1064T241 1098T277 1114Q298 1114 312 1100Z" />
<glyph unicode="&#xd0;" glyph-name="Eth" horiz-adv-x="764" d="M708 472Q708 422 701 371T679 266T638 166T576 82T491 23T381 1H34V32H67Q89 32 102 34T126 47T137 75V457H51Q34 457 34 472Q34 486 45 488H137V887Q137 914 121 923T74 932Q68 932 54 932T34
931V962H381Q419 962 438 959Q511 947 566 886T657 744Q708 625 708 472ZM608 491V502Q608 575 598 641T563 777T486 889T359 931H266Q245 931 234 925T223 897V488H397Q413 488 413 473V466Q410 457 400 457H223V64Q223 32 262 32H365Q478 32 544 141Q573 190
588 255T605 367T608 491Z" />
<glyph unicode="&#xd1;" glyph-name="Ntilde" horiz-adv-x="750" d="M716 930Q680 930 657 923T626 903T615 880T613 856V26Q613 10 611 5T599 0Q592 0 590 2T582 15L165 887H164V105Q164 90 166 81T176 59T208 38T267 31V0L150 3L33 0V31Q69 31 92 38T123 58T134
81T136 105V922Q111 930 61 930H33V961H198Q213 961 217 959T226 946L584 197H585V856Q585 871 583 880T573 902T541 923T482 930V961L599 958L716 961V930ZM569 1083Q548 1059 539 1050T509 1028T467 1014H458Q426 1014 367 1033T278 1053Q236 1053 197 1014L180
1029Q182 1031 189 1039T198 1049T207 1059T217 1068T226 1076T237 1084T249 1089T262 1094T276 1097T292 1098Q323 1098 382 1079T471 1059Q486 1059 498 1063T517 1070T536 1084T553 1098L569 1083Z" />
<glyph unicode="&#xd2;" glyph-name="Ograve" horiz-adv-x="778" d="M721 478Q721 265 622 122T388 -22Q255 -22 156 120T56 478T155 838T389 983Q522 983 621 839T721 478ZM618 497Q618 621 596 715T538 859T465 934T388 958Q358 958 328 944T267 896T213 811T174
679T159 497Q159 371 179 273T234 118T307 33T389 4Q480 4 549 129T618 497ZM486 1046L474 1024L223 1150Q205 1161 200 1168Q190 1185 200 1202T230 1220Q239 1220 259 1208L486 1046Z" />
<glyph unicode="&#xd3;" glyph-name="Oacute" horiz-adv-x="778" d="M721 478Q721 265 622 122T388 -22Q255 -22 156 120T56 478T155 838T389 983Q522 983 621 839T721 478ZM618 497Q618 621 596 715T538 859T465 934T388 958Q358 958 328 944T267 896T213 811T174
679T159 497Q159 371 179 273T234 118T307 33T389 4Q480 4 549 129T618 497ZM578 1168Q573 1161 555 1150L304 1024L292 1046L519 1208Q539 1220 548 1220Q568 1220 578 1203T578 1168Z" />
<glyph unicode="&#xd4;" glyph-name="Ocircumflex" horiz-adv-x="778" d="M721 478Q721 265 622 122T388 -22Q255 -22 156 120T56 478T155 838T389 983Q522 983 621 839T721 478ZM618 497Q618 621 596 715T538 859T465 934T388 958Q358 958 328 944T267 896T213
811T174 679T159 497Q159 371 179 273T234 118T307 33T389 4Q480 4 549 129T618 497ZM555 1029L533 1014L389 1143L244 1014L222 1029L389 1210L555 1029Z" />
<glyph unicode="&#xd5;" glyph-name="Otilde" horiz-adv-x="778" d="M721 478Q721 265 622 122T388 -22Q255 -22 156 120T56 478T155 838T389 983Q522 983 621 839T721 478ZM618 497Q618 621 596 715T538 859T465 934T388 958Q358 958 328 944T267 896T213 811T174
679T159 497Q159 371 179 273T234 118T307 33T389 4Q480 4 549 129T618 497ZM583 1083Q562 1059 553 1050T523 1028T481 1014H472Q440 1014 381 1033T292 1053Q250 1053 211 1014L194 1029Q196 1031 203 1039T212 1049T221 1059T231 1068T240 1076T251 1084T263
1089T276 1094T290 1097T306 1098Q337 1098 396 1079T485 1059Q500 1059 512 1063T531 1070T550 1084T567 1098L583 1083Z" />
<glyph unicode="&#xd6;" glyph-name="Odieresis" horiz-adv-x="778" d="M721 478Q721 265 622 122T388 -22Q255 -22 156 120T56 478T155 838T389 983Q522 983 621 839T721 478ZM618 497Q618 621 596 715T538 859T465 934T388 958Q358 958 328 944T267 896T213
811T174 679T159 497Q159 371 179 273T234 118T307 33T389 4Q480 4 549 129T618 497ZM342 1083T342 1064T328 1030T292 1014Q271 1014 257 1028T242 1064T256 1099T292 1114Q314 1114 328 1099ZM535 1085T535 1064T521 1029T485 1014Q463 1014 449 1029T435 1064T449
1098T485 1114Q506 1114 520 1100Z" />
<glyph unicode="&#xd7;" glyph-name="multiply" horiz-adv-x="778" d="M623 16Q608 2 585 25L388 222L190 24Q166 2 152 15Q138 29 162 53L360 251L162 449Q138 472 152 486Q167 500 190 477L388 279L586 477Q609 500 623 486T614 449L416 251L613 53Q638 31 623 16Z" />
<glyph unicode="&#xd8;" glyph-name="Oslash" horiz-adv-x="778" d="M721 478Q721 265 622 122T388 -22Q288 -22 196 70L133 -55L112 -43L178 91Q159 113 142 142T103 220T69 335T56 478Q56 693 155 838T389 983Q434 983 477 964T537 930T580 891L644 1016L666
1004L598 870Q616 849 633 820T672 742T707 624T721 478ZM558 847Q486 961 388 961Q330 961 281 920T199 808Q145 692 145 478Q145 257 204 142L558 847ZM632 478Q632 699 573 819L219 114Q287 0 389 0Q447 0 498 42T585 166Q632 277 632 478Z" />
<glyph unicode="&#xd9;" glyph-name="Ugrave" horiz-adv-x="750" d="M716 930Q666 930 640 915T613 861V351Q613 295 611 277Q600 146 537 62T388 -22Q284 -22 210 78T136 314V883Q136 912 124 921T57 930H33V961Q68 958 181 958Q293 958 328 961V930H304Q250
930 238 921T225 883V304Q225 154 275 82T390 9Q468 9 525 97T582 316V856Q582 871 580 880T570 902T538 923T479 930V961L598 958L716 961V930ZM495 1046L483 1024L232 1150Q214 1161 209 1168Q199 1185 209 1202T239 1220Q248 1220 268 1208L495 1046Z" />
<glyph unicode="&#xda;" glyph-name="Uacute" horiz-adv-x="750" d="M716 930Q666 930 640 915T613 861V351Q613 295 611 277Q600 146 537 62T388 -22Q284 -22 210 78T136 314V883Q136 912 124 921T57 930H33V961Q68 958 181 958Q293 958 328 961V930H304Q250
930 238 921T225 883V304Q225 154 275 82T390 9Q468 9 525 97T582 316V856Q582 871 580 880T570 902T538 923T479 930V961L598 958L716 961V930ZM587 1168Q582 1161 564 1150L313 1024L301 1046L528 1208Q548 1220 557 1220Q577 1220 587 1203T587 1168Z" />
<glyph unicode="&#xdb;" glyph-name="Ucircumflex" horiz-adv-x="750" d="M716 930Q666 930 640 915T613 861V351Q613 295 611 277Q600 146 537 62T388 -22Q284 -22 210 78T136 314V883Q136 912 124 921T57 930H33V961Q68 958 181 958Q293 958 328 961V930H304Q250
930 238 921T225 883V304Q225 154 275 82T390 9Q468 9 525 97T582 316V856Q582 871 580 880T570 902T538 923T479 930V961L598 958L716 961V930ZM564 1029L542 1014L398 1143L253 1014L231 1029L398 1210L564 1029Z" />
<glyph unicode="&#xdc;" glyph-name="Udieresis" horiz-adv-x="750" d="M716 930Q666 930 640 915T613 861V351Q613 295 611 277Q600 146 537 62T388 -22Q284 -22 210 78T136 314V883Q136 912 124 921T57 930H33V961Q68 958 181 958Q293 958 328 961V930H304Q250
930 238 921T225 883V304Q225 154 275 82T390 9Q468 9 525 97T582 316V856Q582 871 580 880T570 902T538 923T479 930V961L598 958L716 961V930ZM351 1083T351 1064T337 1030T301 1014Q280 1014 266 1028T251 1064T265 1099T301 1114Q323 1114 337 1099ZM544 1085T544
1064T530 1029T494 1014Q472 1014 458 1029T444 1064T458 1098T494 1114Q515 1114 529 1100Z" />
<glyph unicode="&#xdd;" glyph-name="Yacute" horiz-adv-x="750" d="M740 930Q656 930 627 865L417 384V80Q417 49 429 40T497 31H520V0Q484 3 374 3T228 0V31H252Q306 31 318 40T331 78V384L111 888Q98 917 84 923T9 930V961L136 958Q244 958 280 961V930Q202
930 202 902Q202 894 207 884L404 432L591 860Q597 875 597 883Q597 901 581 915T529 930V961L643 958Q694 958 740 961V930ZM564 1168Q559 1161 541 1150L290 1024L278 1046L505 1208Q525 1220 534 1220Q554 1220 564 1203T564 1168Z" />
<glyph unicode="&#xde;" glyph-name="Thorn" horiz-adv-x="625" d="M569 511Q569 416 517 339T373 251H222V100Q222 97 222 89T221 76Q221 49 238 40T286 31Q292 31 305 31T325 32V1H36V32Q41 32 53 32T73 31Q139 31 139 71V892Q139 916 120 923T68 931H36V962H325V931H296Q279
931 268 930T245 924T228 911T222 888V771H340Q372 771 387 768Q473 756 521 679T569 511ZM469 507Q469 670 388 726Q368 740 325 740H222V282H321Q336 282 343 283Q386 288 416 328T457 415T469 507Z" />
<glyph unicode="&#xdf;" glyph-name="germandbls" horiz-adv-x="500" d="M471 174Q471 93 418 41T296 -11Q254 -11 228 11T201 65Q201 83 212 92T237 102Q252 102 262 92T273 66T264 41T243 30Q263 11 293 11Q331 11 363 49T396 173Q396 230 382 279T331 366T237
409Q233 409 231 412T228 418V420Q228 424 230 426T234 430H237Q251 432 260 435T285 448T316 480T344 536Q368 602 368 705Q368 826 340 893T272 961Q229 961 201 889T172 716V0Q154 3 126 3L28 0V31Q81 31 93 37T106 76V400H28V431H106V707Q106 818 154 900T272
983Q343 983 393 902T443 703Q443 600 402 525T299 422Q375 399 423 330T471 174Z" />
<glyph unicode="&#xe0;" glyph-name="agrave" horiz-adv-x="500" d="M493 89Q493 36 465 15T411 -6Q378 -6 357 18T333 76Q318 38 284 14T202 -11Q166 -11 132 -2T70 32T42 95Q42 180 142 225Q202 254 326 261V298Q326 360 294 393T220 426Q147 426 112 380Q142
379 152 364T163 334Q163 314 151 301T117 288Q97 288 84 300T71 335Q71 384 115 416T222 448Q304 448 359 393Q376 376 384 354T394 318T395 275V75Q395 69 397 60T408 38T432 25Q468 25 468 89V145H493V89ZM326 140V240Q215 236 167 192T119 96Q119 59 145 35T209
11Q251 11 288 43T326 140ZM312 581L291 568L137 803Q126 820 126 830Q126 844 137 854T162 864Q172 864 179 859T188 850T196 835L312 581Z" />
<glyph unicode="&#xe1;" glyph-name="aacute" horiz-adv-x="500" d="M493 89Q493 36 465 15T411 -6Q378 -6 357 18T333 76Q318 38 284 14T202 -11Q166 -11 132 -2T70 32T42 95Q42 180 142 225Q202 254 326 261V298Q326 360 294 393T220 426Q147 426 112 380Q142
379 152 364T163 334Q163 314 151 301T117 288Q97 288 84 300T71 335Q71 384 115 416T222 448Q304 448 359 393Q376 376 384 354T394 318T395 275V75Q395 69 397 60T408 38T432 25Q468 25 468 89V145H493V89ZM326 140V240Q215 236 167 192T119 96Q119 59 145 35T209
11Q251 11 288 43T326 140ZM374 830Q374 820 363 803L209 568L188 581L304 835Q309 845 311 849T321 859T338 864Q351 864 362 854T374 830Z" />
<glyph unicode="&#xe2;" glyph-name="acircumflex" horiz-adv-x="500" d="M493 89Q493 36 465 15T411 -6Q378 -6 357 18T333 76Q318 38 284 14T202 -11Q166 -11 132 -2T70 32T42 95Q42 180 142 225Q202 254 326 261V298Q326 360 294 393T220 426Q147 426 112 380Q142
379 152 364T163 334Q163 314 151 301T117 288Q97 288 84 300T71 335Q71 384 115 416T222 448Q304 448 359 393Q376 376 384 354T394 318T395 275V75Q395 69 397 60T408 38T432 25Q468 25 468 89V145H493V89ZM326 140V240Q215 236 167 192T119 96Q119 59 145 35T209
11Q251 11 288 43T326 140ZM406 583L384 568L250 781L115 568L93 583L250 864L406 583Z" />
<glyph unicode="&#xe3;" glyph-name="atilde" horiz-adv-x="500" d="M493 89Q493 36 465 15T411 -6Q378 -6 357 18T333 76Q318 38 284 14T202 -11Q166 -11 132 -2T70 32T42 95Q42 180 142 225Q202 254 326 261V298Q326 360 294 393T220 426Q147 426 112 380Q142
379 152 364T163 334Q163 314 151 301T117 288Q97 288 84 300T71 335Q71 384 115 416T222 448Q304 448 359 393Q376 376 384 354T394 318T395 275V75Q395 69 397 60T408 38T432 25Q468 25 468 89V145H493V89ZM326 140V240Q215 236 167 192T119 96Q119 59 145 35T209
11Q251 11 288 43T326 140ZM416 748Q384 713 372 701T343 680T308 670Q285 670 246 693Q203 718 181 718Q161 718 141 706T110 682L99 670L83 685Q115 720 127 732T156 753T191 763Q214 763 253 740Q296 715 318 715Q338 715 358 727T390 751L400 763L416 748Z"
/>
<glyph unicode="&#xe4;" glyph-name="adieresis" horiz-adv-x="500" d="M493 89Q493 36 465 15T411 -6Q378 -6 357 18T333 76Q318 38 284 14T202 -11Q166 -11 132 -2T70 32T42 95Q42 180 142 225Q202 254 326 261V298Q326 360 294 393T220 426Q147 426 112 380Q142
379 152 364T163 334Q163 314 151 301T117 288Q97 288 84 300T71 335Q71 384 115 416T222 448Q304 448 359 393Q376 376 384 354T394 318T395 275V75Q395 69 397 60T408 38T432 25Q468 25 468 89V145H493V89ZM326 140V240Q215 236 167 192T119 96Q119 59 145 35T209
11Q251 11 288 43T326 140ZM203 735T203 716T189 682T153 666Q132 666 118 680T103 716T117 751T153 766Q175 766 189 751ZM396 737T396 716T382 681T346 666Q324 666 310 681T296 716T310 750T346 766Q367 766 381 752Z" />
<glyph unicode="&#xe5;" glyph-name="aring" horiz-adv-x="500" d="M493 89Q493 36 465 15T411 -6Q378 -6 357 18T333 76Q318 38 284 14T202 -11Q166 -11 132 -2T70 32T42 95Q42 180 142 225Q202 254 326 261V298Q326 360 294 393T220 426Q147 426 112 380Q142
379 152 364T163 334Q163 314 151 301T117 288Q97 288 84 300T71 335Q71 384 115 416T222 448Q304 448 359 393Q376 376 384 354T394 318T395 275V75Q395 69 397 60T408 38T432 25Q468 25 468 89V145H493V89ZM326 140V240Q215 236 167 192T119 96Q119 59 145 35T209
11Q251 11 288 43T326 140ZM320 802Q320 846 314 878T299 925T280 948T262 958T250 960Q240 960 230 955T208 935T188 886T180 802Q180 761 185 731T198 684T216 659T234 647T250 644Q256 644 262 645T280 656T300 680T314 727T320 802ZM346 879T346 803T318 674T249
621Q211 621 183 673T154 803Q154 877 182 930T251 983Q290 983 318 931Z" />
<glyph unicode="&#xe6;" glyph-name="ae" horiz-adv-x="722" d="M693 119Q693 110 684 91T659 48T610 7T538 -11Q436 -11 371 78Q352 39 307 14T204 -11Q166 -11 133 -3T72 30T45 92Q45 163 124 206T326 250V298Q326 359 294 392T220 426Q148 426 112 380Q142
379 152 364T163 334Q163 314 151 301T117 288Q97 288 84 300T71 335Q71 384 115 416T222 448Q270 448 311 428T375 371Q439 448 526 448Q605 448 649 393T693 252Q693 237 689 234T668 231H395Q395 170 410 126T443 61T487 29T522 16T542 14Q586 14 619 42T665
111Q667 117 667 119T669 125T672 129T675 130T680 131Q693 131 693 119ZM627 252Q618 426 525 426Q485 426 444 387T396 252H627ZM338 132Q338 143 335 154Q326 185 326 229Q217 225 170 184T122 92Q122 57 147 34T209 11Q262 11 300 47T338 132Z" />
<glyph unicode="&#xe7;" glyph-name="ccedilla" horiz-adv-x="444" d="M415 119Q415 115 412 104T399 76T376 42T338 12T283 -8L284 -55Q367 -68 367 -126Q367 -176 293 -192Q246 -203 175 -203H131V-181H162Q298 -181 298 -126Q298 -102 276 -87T215 -71V-8Q138
5 86 68T34 216Q34 311 96 379T251 448Q312 448 358 419T404 341Q404 319 391 307T358 294Q337 294 325 307T312 340Q312 349 315 357T329 375T359 386Q323 423 252 423Q201 423 159 375T117 218Q117 161 131 119T168 56T213 24T258 14Q356 14 389 119Q392 129
402 129Q415 129 415 119Z" />
<glyph unicode="&#xe8;" glyph-name="egrave" horiz-adv-x="444" d="M415 119Q415 110 406 91T378 48T325 7T248 -11Q160 -11 94 55T28 220Q28 314 88 381T236 448Q324 448 369 391T415 252Q415 237 411 234T390 231H111Q111 129 141 81Q183 14 254 14Q264 14
275 16T311 26T356 58T389 117Q392 131 402 131Q415 131 415 119ZM349 252Q349 273 346 296T332 352T297 405T236 426Q220 426 203 419T164 396T129 342T112 252H349ZM284 581L263 568L109 803Q98 820 98 830Q98 844 109 854T134 864Q144 864 151 859T160 850T168
835L284 581Z" />
<glyph unicode="&#xe9;" glyph-name="eacute" horiz-adv-x="444" d="M415 119Q415 110 406 91T378 48T325 7T248 -11Q160 -11 94 55T28 220Q28 314 88 381T236 448Q324 448 369 391T415 252Q415 237 411 234T390 231H111Q111 129 141 81Q183 14 254 14Q264 14
275 16T311 26T356 58T389 117Q392 131 402 131Q415 131 415 119ZM349 252Q349 273 346 296T332 352T297 405T236 426Q220 426 203 419T164 396T129 342T112 252H349ZM346 830Q346 820 335 803L181 568L160 581L276 835Q281 845 283 849T293 859T310 864Q323 864
334 854T346 830Z" />
<glyph unicode="&#xea;" glyph-name="ecircumflex" horiz-adv-x="444" d="M415 119Q415 110 406 91T378 48T325 7T248 -11Q160 -11 94 55T28 220Q28 314 88 381T236 448Q324 448 369 391T415 252Q415 237 411 234T390 231H111Q111 129 141 81Q183 14 254 14Q264
14 275 16T311 26T356 58T389 117Q392 131 402 131Q415 131 415 119ZM349 252Q349 273 346 296T332 352T297 405T236 426Q220 426 203 419T164 396T129 342T112 252H349ZM378 583L356 568L222 781L87 568L65 583L222 864L378 583Z" />
<glyph unicode="&#xeb;" glyph-name="edieresis" horiz-adv-x="444" d="M415 119Q415 110 406 91T378 48T325 7T248 -11Q160 -11 94 55T28 220Q28 314 88 381T236 448Q324 448 369 391T415 252Q415 237 411 234T390 231H111Q111 129 141 81Q183 14 254 14Q264
14 275 16T311 26T356 58T389 117Q392 131 402 131Q415 131 415 119ZM349 252Q349 273 346 296T332 352T297 405T236 426Q220 426 203 419T164 396T129 342T112 252H349ZM175 735T175 716T161 682T125 666Q104 666 90 680T75 716T89 751T125 766Q147 766 161 751ZM368
737T368 716T354 681T318 666Q296 666 282 681T268 716T282 750T318 766Q339 766 353 752Z" />
<glyph unicode="&#xec;" glyph-name="igrave" horiz-adv-x="278" d="M247 0Q145 3 143 3L33 0V31Q86 31 98 37T111 76V345Q111 382 99 391T37 400V431L177 442V75Q177 45 187 38T247 31V0ZM201 581L180 568L26 803Q15 820 15 830Q15 844 26 854T51 864Q61 864
68 859T77 850T85 835L201 581Z" />
<glyph unicode="&#xed;" glyph-name="iacute" horiz-adv-x="278" d="M247 0Q145 3 143 3L33 0V31Q86 31 98 37T111 76V345Q111 382 99 391T37 400V431L177 442V75Q177 45 187 38T247 31V0ZM263 830Q263 820 252 803L98 568L77 581L193 835Q198 845 200 849T210
859T227 864Q240 864 251 854T263 830Z" />
<glyph unicode="&#xee;" glyph-name="icircumflex" horiz-adv-x="278" d="M247 0Q145 3 143 3L33 0V31Q86 31 98 37T111 76V345Q111 382 99 391T37 400V431L177 442V75Q177 45 187 38T247 31V0ZM295 583L273 568L139 781L4 568L-18 583L139 864L295 583Z" />
<glyph unicode="&#xef;" glyph-name="idieresis" horiz-adv-x="278" d="M247 0Q145 3 143 3L33 0V31Q86 31 98 37T111 76V345Q111 382 99 391T37 400V431L177 442V75Q177 45 187 38T247 31V0ZM92 735T92 716T78 682T42 666Q21 666 7 680T-8 716T6 751T42 766Q64
766 78 751ZM285 737T285 716T271 681T235 666Q213 666 199 681T185 716T199 750T235 766Q256 766 270 752Z" />
<glyph unicode="&#xf0;" glyph-name="eth" horiz-adv-x="500" d="M487 913Q487 909 484 906T478 901T469 896T462 892L426 871Q356 826 280 788Q285 780 296 766T312 744Q471 514 471 232Q471 122 407 57T250 -9Q156 -9 92 56T28 214Q28 307 91 377T246 448Q289
448 325 421T380 353H381Q381 360 376 390Q352 536 284 669Q253 731 230 758L103 685Q41 649 34 649Q30 649 27 653T23 661Q23 671 47 682L217 780Q167 853 100 920Q97 923 86 932T69 948T62 961Q62 972 73 972Q78 971 80 970Q144 940 229 847L256 817Q262 808
266 808L404 886Q408 889 427 901T458 919T475 925H478Q487 924 487 913ZM387 218Q387 246 380 279T357 347T313 403T248 426H246Q206 426 178 406T137 352T118 285T112 215V199Q120 121 135 92Q152 58 183 37T250 15T314 35T357 87T379 152T387 218Z" />
<glyph unicode="&#xf1;" glyph-name="ntilde" horiz-adv-x="556" d="M535 0L423 3L310 0V31Q363 31 375 37T388 76V309Q388 360 373 390T314 420Q262 420 221 377T179 260V76Q179 44 191 38T257 31V0L145 3L32 0V31Q85 31 97 37T110 76V344Q110 381 97 390T32
400V431L173 442V339H174Q220 442 321 442Q396 442 426 405Q448 380 452 352T457 252V61Q458 40 474 36T535 31V0ZM444 748Q412 713 400 701T371 680T336 670Q313 670 274 693Q232 718 209 718Q189 718 169 706T138 682L127 670L111 685Q143 720 155 732T184 753T219
763Q242 763 281 740Q324 715 346 715Q366 715 386 727T418 751L428 763L444 748Z" />
<glyph unicode="&#xf2;" glyph-name="ograve" horiz-adv-x="500" d="M471 214Q471 120 406 55T249 -11Q160 -11 94 54T28 214T92 378T250 448Q341 448 406 379T471 214ZM388 222Q388 318 362 361Q323 426 249 426Q217 426 186 409T135 359Q111 315 111 222Q111
125 136 81Q175 14 250 14Q287 14 318 34T366 88Q388 132 388 222ZM312 581L291 568L137 803Q126 820 126 830Q126 844 137 854T162 864Q172 864 179 859T188 850T196 835L312 581Z" />
<glyph unicode="&#xf3;" glyph-name="oacute" horiz-adv-x="500" d="M471 214Q471 120 406 55T249 -11Q160 -11 94 54T28 214T92 378T250 448Q341 448 406 379T471 214ZM388 222Q388 318 362 361Q323 426 249 426Q217 426 186 409T135 359Q111 315 111 222Q111
125 136 81Q175 14 250 14Q287 14 318 34T366 88Q388 132 388 222ZM374 830Q374 820 363 803L209 568L188 581L304 835Q309 845 311 849T321 859T338 864Q351 864 362 854T374 830Z" />
<glyph unicode="&#xf4;" glyph-name="ocircumflex" horiz-adv-x="500" d="M471 214Q471 120 406 55T249 -11Q160 -11 94 54T28 214T92 378T250 448Q341 448 406 379T471 214ZM388 222Q388 318 362 361Q323 426 249 426Q217 426 186 409T135 359Q111 315 111 222Q111
125 136 81Q175 14 250 14Q287 14 318 34T366 88Q388 132 388 222ZM406 583L384 568L250 781L115 568L93 583L250 864L406 583Z" />
<glyph unicode="&#xf5;" glyph-name="otilde" horiz-adv-x="500" d="M471 214Q471 120 406 55T249 -11Q160 -11 94 54T28 214T92 378T250 448Q341 448 406 379T471 214ZM388 222Q388 318 362 361Q323 426 249 426Q217 426 186 409T135 359Q111 315 111 222Q111
125 136 81Q175 14 250 14Q287 14 318 34T366 88Q388 132 388 222ZM416 748Q384 713 372 701T343 680T308 670Q285 670 246 693Q203 718 181 718Q161 718 141 706T110 682L99 670L83 685Q115 720 127 732T156 753T191 763Q214 763 253 740Q296 715 318 715Q338
715 358 727T390 751L400 763L416 748Z" />
<glyph unicode="&#xf6;" glyph-name="odieresis" horiz-adv-x="500" d="M471 214Q471 120 406 55T249 -11Q160 -11 94 54T28 214T92 378T250 448Q341 448 406 379T471 214ZM388 222Q388 318 362 361Q323 426 249 426Q217 426 186 409T135 359Q111 315 111 222Q111
125 136 81Q175 14 250 14Q287 14 318 34T366 88Q388 132 388 222ZM203 735T203 716T189 682T153 666Q132 666 118 680T103 716T117 751T153 766Q175 766 189 751ZM396 737T396 716T382 681T346 666Q324 666 310 681T296 716T310 750T346 766Q367 766 381 752Z"
/>
<glyph unicode="&#xf7;" glyph-name="divide" horiz-adv-x="778" d="M722 251Q722 231 698 231H80Q55 231 55 251T79 271H704Q722 269 722 251ZM452 36Q452 9 433 -9T388 -28Q360 -28 343 -9T325 36T344 80T389 99T433 80T452 36ZM452 467Q452 440 433 422T388
403T344 422T325 466Q325 492 343 511T389 530Q415 530 433 511T452 467Z" />
<glyph unicode="&#xf8;" glyph-name="oslash" horiz-adv-x="500" d="M464 213Q464 120 401 55T249 -11Q195 -11 147 16L79 -102Q61 -92 60 -91L129 28Q87 58 61 106T35 213Q35 310 98 379T250 448Q308 448 354 418L420 533Q438 523 439 522L372 406Q407 380 435
330T464 213ZM338 392Q300 426 249 426Q173 426 133 357Q104 309 104 214Q104 107 146 59L338 392ZM395 214Q395 326 354 374L163 42Q199 11 250 11Q282 11 314 27T366 75Q395 121 395 214Z" />
<glyph unicode="&#xf9;" glyph-name="ugrave" horiz-adv-x="556" d="M535 0L391 -11V77H390Q349 -11 262 -11Q218 -11 188 0T143 25T120 66T111 109T110 158V308Q110 376 100 388T32 400V431L179 442V110Q179 86 181 72T191 42T218 19T267 11Q321 11 354 55T388
166V344Q388 381 375 390T310 400V431L457 442V87Q457 50 470 41T535 31V0ZM340 581L319 568L165 803Q154 820 154 830Q154 844 165 854T190 864Q200 864 207 859T216 850T224 835L340 581Z" />
<glyph unicode="&#xfa;" glyph-name="uacute" horiz-adv-x="556" d="M535 0L391 -11V77H390Q349 -11 262 -11Q218 -11 188 0T143 25T120 66T111 109T110 158V308Q110 376 100 388T32 400V431L179 442V110Q179 86 181 72T191 42T218 19T267 11Q321 11 354 55T388
166V344Q388 381 375 390T310 400V431L457 442V87Q457 50 470 41T535 31V0ZM402 830Q402 820 391 803L237 568L216 581L332 835Q337 845 339 849T349 859T366 864Q379 864 390 854T402 830Z" />
<glyph unicode="&#xfb;" glyph-name="ucircumflex" horiz-adv-x="556" d="M535 0L391 -11V77H390Q349 -11 262 -11Q218 -11 188 0T143 25T120 66T111 109T110 158V308Q110 376 100 388T32 400V431L179 442V110Q179 86 181 72T191 42T218 19T267 11Q321 11 354
55T388 166V344Q388 381 375 390T310 400V431L457 442V87Q457 50 470 41T535 31V0ZM434 583L412 568L278 781L143 568L121 583L278 864L434 583Z" />
<glyph unicode="&#xfc;" glyph-name="udieresis" horiz-adv-x="556" d="M535 0L391 -11V77H390Q349 -11 262 -11Q218 -11 188 0T143 25T120 66T111 109T110 158V308Q110 376 100 388T32 400V431L179 442V110Q179 86 181 72T191 42T218 19T267 11Q321 11 354 55T388
166V344Q388 381 375 390T310 400V431L457 442V87Q457 50 470 41T535 31V0ZM231 735T231 716T217 682T181 666Q160 666 146 680T131 716T145 751T181 766Q203 766 217 751ZM424 737T424 716T410 681T374 666Q352 666 338 681T324 716T338 750T374 766Q395 766 409
752Z" />
<glyph unicode="&#xfd;" glyph-name="yacute" horiz-adv-x="528" d="M508 400Q441 400 415 336L239 -91Q191 -205 111 -205Q73 -205 46 -182T19 -124Q19 -103 31 -92T61 -81Q79 -81 91 -92T103 -123Q103 -160 64 -165Q83 -183 111 -183Q141 -183 165 -161T199
-118T225 -59L250 0L100 365Q90 389 75 394T19 400V431Q64 428 116 428L225 431V400Q169 400 169 374Q169 371 175 356L286 87L387 333Q393 347 393 357Q393 398 346 400V431L433 428Q473 428 508 431V400ZM388 830Q388 820 377 803L223 568L202 581L318 835Q323
845 325 849T335 859T352 864Q365 864 376 854T388 830Z" />
<glyph unicode="&#xfe;" glyph-name="thorn" horiz-adv-x="556" d="M521 217Q521 125 456 58T298 -10Q263 -10 228 6T176 51L175 -122Q175 -147 188 -154T229 -162H253V-193H27V-162Q74 -162 89 -155T105 -122V887Q105 922 90 932T46 942H27V973L172 984V377Q229
442 311 442Q398 442 459 375T521 217ZM437 215Q437 256 425 299T381 380T301 417Q256 417 215 385T174 314Q174 308 174 295T175 275V107Q175 91 189 72Q229 12 295 12H301Q363 18 397 75T436 199Q437 204 437 215Z" />
<glyph unicode="&#xff;" glyph-name="ydieresis" horiz-adv-x="528" d="M508 400Q441 400 415 336L239 -91Q191 -205 111 -205Q73 -205 46 -182T19 -124Q19 -103 31 -92T61 -81Q79 -81 91 -92T103 -123Q103 -160 64 -165Q83 -183 111 -183Q141 -183 165 -161T199
-118T225 -59L250 0L100 365Q90 389 75 394T19 400V431Q64 428 116 428L225 431V400Q169 400 169 374Q169 371 175 356L286 87L387 333Q393 347 393 357Q393 398 346 400V431L433 428Q473 428 508 431V400ZM217 735T217 716T203 682T167 666Q146 666 132 680T117
716T131 751T167 766Q189 766 203 751ZM410 737T410 716T396 681T360 666Q338 666 324 681T310 716T324 750T360 766Q381 766 395 752Z" />
</font>
</defs>
</svg>
